<svg version="1.1" xmlns="http://www.w3.org/2000/svg" viewBox="0 0 1214.2601039064273 576.6756241869201" width="3642.7803117192816" height="1730.0268725607602">
  <!-- svg-source:excalidraw -->
  
  <defs>
    <style class="style-fonts">
      @font-face {
        font-family: "Virgil";
        src: url("https://excalidraw.com/Virgil.woff2");
      }
      @font-face {
        font-family: "Cascadia";
        src: url("https://excalidraw.com/Cascadia.woff2");
      }
    </style>
    
  </defs>
  <rect x="0" y="0" width="1214.2601039064273" height="576.6756241869201" fill="#fffce8"></rect><g stroke-linecap="round" transform="translate(11.988127229238671 234.65837690400713) rotate(0 369.7916646384541 58.64975326255052)"><path d="M7.15 7.54 C7.15 7.54, 7.15 7.54, 7.15 7.54 M7.15 7.54 C7.15 7.54, 7.15 7.54, 7.15 7.54 M3.61 17.71 C5.26 12.97, 8.33 9.92, 16.73 2.62 M3.61 17.71 C7.79 13.47, 11.08 7.84, 16.73 2.62 M2.69 24.86 C10.81 15.75, 18.38 7.6, 23.03 1.47 M2.69 24.86 C8.95 15.6, 17.28 7.6, 23.03 1.47 M2.43 31.26 C10.46 21.76, 19.13 12.45, 29.33 0.32 M2.43 31.26 C12.27 21.84, 20.95 9.71, 29.33 0.32 M2.17 37.66 C10.97 29.87, 18.46 21.51, 34.97 -0.08 M2.17 37.66 C8.52 29.1, 16.69 20.47, 34.97 -0.08 M2.56 43.3 C13.79 30.63, 24.53 18.32, 39.96 0.28 M2.56 43.3 C15.95 28.8, 29.77 11.45, 39.96 0.28 M2.3 49.7 C20.66 31.39, 33.28 12.47, 45.6 -0.11 M2.3 49.7 C18.1 30.94, 32.18 13.12, 45.6 -0.11 M2.04 56.1 C16.24 40.74, 30.5 20.64, 50.59 0.25 M2.04 56.1 C17.04 37.91, 33.68 20.7, 50.59 0.25 M2.43 61.74 C15.01 47.04, 28.71 32.48, 56.23 -0.14 M2.43 61.74 C23.25 38.95, 42.75 15.35, 56.23 -0.14 M2.17 68.14 C19.58 46.37, 38.73 26.87, 61.22 0.22 M2.17 68.14 C23.04 45.14, 44.8 19.17, 61.22 0.22 M2.57 73.78 C21.96 50.9, 40.38 29.74, 66.86 -0.18 M2.57 73.78 C24.59 50.91, 44.05 27.3, 66.86 -0.18 M2.31 80.18 C20.91 58.54, 43.54 31.72, 71.85 0.18 M2.31 80.18 C28.04 51.4, 52.9 20.44, 71.85 0.18 M0.73 88.09 C17.26 67.45, 35.92 48.66, 76.83 0.54 M0.73 88.09 C30.57 53.17, 60.28 19.34, 76.83 0.54 M1.13 93.73 C27.53 63.59, 50.6 35.86, 82.48 0.15 M1.13 93.73 C27.07 62.94, 53.08 34.66, 82.48 0.15 M2.18 98.62 C27.32 73.08, 50.05 43.65, 87.46 0.51 M2.18 98.62 C23.01 75.56, 42.99 51.06, 87.46 0.51 M3.88 102.75 C36.65 65.05, 66.79 30.02, 93.11 0.11 M3.88 102.75 C28.13 76.48, 52.5 48.6, 93.11 0.11 M5.59 106.89 C37.48 69.29, 66.82 35.68, 98.09 0.47 M5.59 106.89 C28.1 83.44, 48.78 58.64, 98.09 0.47 M8.61 109.51 C36.41 79.04, 61.94 47.83, 103.74 0.08 M8.61 109.51 C45.17 67.69, 80.11 28.05, 103.74 0.08 M10.97 112.89 C37.21 79.67, 66.67 48.12, 108.72 0.44 M10.97 112.89 C31.55 88.47, 52.22 64.12, 108.72 0.44 M13.99 115.51 C48.06 76.83, 79.94 39.64, 114.37 0.04 M13.99 115.51 C40.48 84.3, 67.14 54.17, 114.37 0.04 M18.32 116.63 C40.57 90.1, 61.9 68.45, 119.36 0.4 M18.32 116.63 C51.5 79.75, 84.4 40.92, 119.36 0.4 M23.31 116.99 C55.95 79.95, 85.86 45.62, 125 0.01 M23.31 116.99 C56.25 79.13, 87.02 43.19, 125 0.01 M28.3 117.35 C48.91 90.99, 70.36 66.09, 129.99 0.37 M28.3 117.35 C51.62 92.72, 72.85 67.61, 129.99 0.37 M33.28 117.71 C62.39 82.65, 92.38 45.75, 135.63 -0.03 M33.28 117.71 C67.55 76.51, 103.03 37.05, 135.63 -0.03 M38.93 117.31 C61.52 93.85, 80.68 69.59, 140.62 0.33 M38.93 117.31 C62.92 90.67, 84.9 65.49, 140.62 0.33 M43.91 117.67 C79.08 77.54, 117.48 34.55, 146.26 -0.06 M43.91 117.67 C72.18 86.03, 100.93 51.9, 146.26 -0.06 M49.56 117.28 C75.52 87.38, 103.73 53.22, 151.25 0.3 M49.56 117.28 C86.95 75.23, 123.29 32.08, 151.25 0.3 M54.54 117.64 C86.42 80.69, 120.2 44.52, 156.89 -0.1 M54.54 117.64 C92.57 75.01, 129.54 32.73, 156.89 -0.1 M60.19 117.24 C96.62 78.25, 131.15 36.04, 161.88 0.26 M60.19 117.24 C96.54 75.32, 132.71 32.19, 161.88 0.26 M65.17 117.6 C92.58 85.43, 120.22 53.43, 167.52 -0.13 M65.17 117.6 C95.8 84.07, 126.28 49.65, 167.52 -0.13 M70.82 117.21 C107.3 76.6, 139.94 35.85, 172.51 0.23 M70.82 117.21 C92.75 89.47, 117.94 61.92, 172.51 0.23 M75.8 117.57 C105.29 84.65, 133.25 50.08, 177.49 0.59 M75.8 117.57 C105.62 83.74, 133.59 50.77, 177.49 0.59 M81.45 117.18 C120.44 70.43, 162.53 24.16, 183.14 0.2 M81.45 117.18 C110.14 83.93, 139.12 50.72, 183.14 0.2 M86.43 117.54 C110.78 89.36, 138.27 59.5, 188.12 0.56 M86.43 117.54 C111.03 85.95, 136.4 56.99, 188.12 0.56 M92.08 117.14 C113.68 89.9, 136.01 64.73, 193.77 0.16 M92.08 117.14 C125.44 80.02, 157.09 42.32, 193.77 0.16 M97.06 117.5 C119.54 89.17, 142.99 61.81, 198.75 0.52 M97.06 117.5 C136.68 70.98, 176.64 25.8, 198.75 0.52 M102.71 117.11 C141.75 72.9, 180.61 26.73, 204.4 0.13 M102.71 117.11 C127.58 90.27, 150.44 60.68, 204.4 0.13 M107.69 117.47 C144.36 76.77, 178.21 39.22, 209.38 0.49 M107.69 117.47 C149.26 69.98, 188.97 24.56, 209.38 0.49 M113.34 117.07 C134.77 93.01, 154.51 66.65, 215.03 0.09 M113.34 117.07 C137.03 90.73, 159.14 64.96, 215.03 0.09 M118.32 117.43 C145.39 82.96, 174.08 54.17, 220.01 0.45 M118.32 117.43 C143.3 87.83, 167.8 59.98, 220.01 0.45 M123.97 117.04 C150.3 84.81, 178.02 56.9, 225.66 0.06 M123.97 117.04 C161.43 73.88, 199.52 31.14, 225.66 0.06 M128.95 117.4 C162.58 79.76, 194.17 39.35, 230.64 0.42 M128.95 117.4 C151.88 91, 173.94 64.03, 230.64 0.42 M133.94 117.76 C163.85 82.28, 192.86 45.88, 236.29 0.02 M133.94 117.76 C158.41 90.11, 182.64 62.18, 236.29 0.02 M139.58 117.36 C164.26 92.62, 186.09 66.38, 241.27 0.38 M139.58 117.36 C170.6 81.79, 201.55 44.32, 241.27 0.38 M144.57 117.72 C172.38 83.81, 202.6 51.01, 246.92 -0.01 M144.57 117.72 C176.41 81.35, 208.75 44.47, 246.92 -0.01 M150.21 117.33 C178.87 84.16, 207.16 53.09, 251.9 0.35 M150.21 117.33 C186.23 74.95, 223.21 31.33, 251.9 0.35 M155.2 117.69 C193.35 73.2, 232.93 30.14, 257.55 -0.05 M155.2 117.69 C192.05 76.05, 226.87 35.19, 257.55 -0.05 M160.84 117.29 C183.91 94.56, 203.44 68.36, 262.53 0.31 M160.84 117.29 C197.06 74.24, 232.52 33.59, 262.53 0.31 M165.83 117.65 C202.78 73.97, 243.68 27.45, 268.18 -0.08 M165.83 117.65 C187.94 93.21, 209.35 69.27, 268.18 -0.08 M171.47 117.26 C204.99 75.06, 242.68 33.19, 273.16 0.28 M171.47 117.26 C204.91 78.5, 240.14 39.75, 273.16 0.28 M176.46 117.62 C201.49 87.83, 228.39 57.2, 278.15 0.64 M176.46 117.62 C201.08 87.73, 225.28 57.6, 278.15 0.64 M182.1 117.23 C206.78 89.94, 235.04 58.48, 283.79 0.25 M182.1 117.23 C206.79 86.91, 233.13 57.21, 283.79 0.25 M187.09 117.59 C226.71 72.09, 266.99 24.94, 288.78 0.61 M187.09 117.59 C217.75 79.77, 249.7 43.44, 288.78 0.61 M192.73 117.19 C217.7 89.1, 240.38 62.44, 294.42 0.21 M192.73 117.19 C229.89 76.38, 264.6 34.77, 294.42 0.21 M197.72 117.55 C220.97 91.34, 238.93 68.64, 299.41 0.57 M197.72 117.55 C232.44 78.81, 267.04 38.74, 299.41 0.57 M203.36 117.16 C232.28 86.64, 260.64 53.55, 305.05 0.18 M203.36 117.16 C238.92 74.99, 275.7 31.58, 305.05 0.18 M208.35 117.52 C238.51 84.76, 266.26 51.42, 310.04 0.54 M208.35 117.52 C245.94 75.19, 281.73 33.22, 310.04 0.54 M213.99 117.12 C243.44 83.96, 272.78 46.81, 315.68 0.14 M213.99 117.12 C248.12 78.45, 280.97 40.1, 315.68 0.14 M218.98 117.48 C241.29 91.85, 265.73 61.01, 320.67 0.5 M218.98 117.48 C249.93 83.71, 280.26 47.46, 320.67 0.5 M224.62 117.09 C252.52 85.82, 282.82 51.92, 326.31 0.11 M224.62 117.09 C261.92 73.53, 300.67 30.85, 326.31 0.11 M229.61 117.45 C256.69 83.28, 285.15 49.36, 331.3 0.47 M229.61 117.45 C270.25 72.79, 309.16 27.32, 331.3 0.47 M234.6 117.81 C271.87 73.35, 313.02 26.48, 336.94 0.07 M234.6 117.81 C263.11 83.38, 294.49 48.34, 336.94 0.07 M240.24 117.41 C264.2 89.88, 292.35 62.67, 341.93 0.43 M240.24 117.41 C274.93 78.1, 307.68 39.11, 341.93 0.43 M245.23 117.77 C286.85 70.38, 325.85 25.74, 347.57 0.04 M245.23 117.77 C269.07 93.19, 291.96 67.49, 347.57 0.04 M250.87 117.38 C285.36 76.92, 322.59 38.03, 352.56 0.4 M250.87 117.38 C286.54 75.5, 321.8 35.59, 352.56 0.4 M255.86 117.74 C285.85 84.28, 312.46 51.58, 358.2 0 M255.86 117.74 C291.8 76.53, 329.54 35.69, 358.2 0 M261.5 117.34 C282.79 91.25, 303.81 67.58, 363.19 0.36 M261.5 117.34 C294.48 78.76, 329.22 39.23, 363.19 0.36 M266.49 117.7 C291.23 89.7, 314.72 61.27, 368.18 0.72 M266.49 117.7 C306.69 72.4, 346.8 25.96, 368.18 0.72 M272.13 117.31 C304.24 83.5, 335.04 48.92, 373.82 0.33 M272.13 117.31 C301.37 84.58, 330.33 50.5, 373.82 0.33 M277.12 117.67 C304.36 85.69, 330.18 54.78, 378.81 0.69 M277.12 117.67 C310 78.27, 345.04 38.21, 378.81 0.69 M282.76 117.28 C307.17 89.14, 332.33 61.36, 384.45 0.3 M282.76 117.28 C311.64 82.76, 342.95 49.98, 384.45 0.3 M287.75 117.64 C322.9 77.25, 356.78 37.81, 389.44 0.66 M287.75 117.64 C312.37 87.62, 340.69 56.38, 389.44 0.66 M293.39 117.24 C323.46 82.84, 355.79 44.45, 395.08 0.26 M293.39 117.24 C328.95 77.51, 363.26 39.08, 395.08 0.26 M298.38 117.6 C328.77 85.8, 357.26 51.01, 400.07 0.62 M298.38 117.6 C334.55 76.57, 370.06 35.74, 400.07 0.62 M304.02 117.21 C336.76 77.36, 373.26 37.95, 405.71 0.23 M304.02 117.21 C333.44 81.46, 365.13 46.07, 405.71 0.23 M309.01 117.57 C340.33 79.32, 372.06 41.97, 410.7 0.59 M309.01 117.57 C337.44 84.53, 366.15 52.12, 410.7 0.59 M314.65 117.17 C335.43 94.79, 353.95 70.17, 416.34 0.19 M314.65 117.17 C350.49 76.91, 385.55 34.55, 416.34 0.19 M319.64 117.53 C342.33 89.97, 368 64.62, 421.33 0.55 M319.64 117.53 C342.16 91.15, 364.34 65.81, 421.33 0.55 M324.63 117.89 C364.91 72.92, 402.01 29.93, 426.97 0.16 M324.63 117.89 C360.85 76.44, 395.99 33.91, 426.97 0.16 M330.27 117.5 C359.96 84.39, 385.65 55.75, 431.96 0.52 M330.27 117.5 C353.33 90.53, 376.76 63.98, 431.96 0.52 M335.26 117.86 C370.15 80.3, 403.28 37.96, 437.6 0.12 M335.26 117.86 C362.04 86.29, 389.41 55.15, 437.6 0.12 M340.9 117.46 C368.81 85.34, 395.91 54.4, 442.59 0.48 M340.9 117.46 C369.13 85.13, 396.26 54.58, 442.59 0.48 M345.89 117.82 C383.85 74.69, 422.21 32.88, 448.23 0.09 M345.89 117.82 C381.06 79.54, 415.11 38.65, 448.23 0.09 M351.53 117.43 C375.56 91.59, 401.79 63.47, 453.22 0.45 M351.53 117.43 C389.87 72.5, 427.36 29.73, 453.22 0.45 M356.52 117.79 C390.27 77.59, 426.34 35.61, 458.86 0.05 M356.52 117.79 C388.83 80.32, 422.2 41.72, 458.86 0.05 M362.16 117.39 C386.96 89.12, 410.97 60.34, 463.85 0.41 M362.16 117.39 C392.42 82.02, 424 47.13, 463.85 0.41 M367.15 117.75 C406.38 72.54, 444.82 25.08, 468.84 0.77 M367.15 117.75 C392.84 86.46, 418.32 57.01, 468.84 0.77 M372.79 117.36 C406.87 79.37, 440.89 37.12, 474.48 0.38 M372.79 117.36 C400.48 85.28, 429.19 52.99, 474.48 0.38 M377.78 117.72 C414.84 71.2, 453.38 26.3, 479.47 0.74 M377.78 117.72 C405.97 86.19, 432.53 55.92, 479.47 0.74 M383.42 117.32 C421.22 74.42, 459.36 31.22, 485.11 0.34 M383.42 117.32 C407.31 89.7, 430.28 63.16, 485.11 0.34 M388.41 117.68 C411.06 87.21, 436.48 58.28, 490.1 0.7 M388.41 117.68 C428 72.78, 467.41 26.07, 490.1 0.7 M394.05 117.29 C432 70.31, 471.21 27.88, 495.74 0.31 M394.05 117.29 C415.98 91.7, 436.06 67.52, 495.74 0.31 M399.04 117.65 C427.11 82.57, 456.77 48.6, 500.73 0.67 M399.04 117.65 C433.78 77.17, 467.65 36.31, 500.73 0.67 M404.68 117.26 C433.33 83.83, 461.71 51.77, 506.37 0.28 M404.68 117.26 C436.45 80.86, 467.65 46.13, 506.37 0.28 M409.67 117.62 C433.1 88.7, 454.59 63.78, 511.36 0.64 M409.67 117.62 C444.69 78.57, 478.67 38.01, 511.36 0.64 M415.31 117.22 C446.38 82.26, 476.49 46.52, 517 0.24 M415.31 117.22 C449.5 78.45, 483.93 38.59, 517 0.24 M420.3 117.58 C440.26 93.67, 460.68 67.37, 521.99 0.6 M420.3 117.58 C450.28 83.89, 478.95 48.07, 521.99 0.6 M425.28 117.94 C461.99 77.56, 499.03 34.21, 527.63 0.21 M425.28 117.94 C447.61 93.39, 469.08 69.01, 527.63 0.21 M430.93 117.55 C466.91 76.85, 501.52 37.56, 532.62 0.57 M430.93 117.55 C452.29 93.19, 472.68 71.57, 532.62 0.57 M435.91 117.91 C468.3 83.55, 498.05 46.95, 538.26 0.17 M435.91 117.91 C468.38 79.03, 504.34 40.55, 538.26 0.17 M441.56 117.51 C481.74 73.63, 517.92 26.61, 543.25 0.53 M441.56 117.51 C477.67 76.13, 515.12 34.81, 543.25 0.53 M446.54 117.87 C473.71 87.34, 500.22 57.05, 548.89 0.14 M446.54 117.87 C486.56 71.29, 526.45 27.32, 548.89 0.14 M452.19 117.48 C480.58 85.53, 506.8 52.75, 553.88 0.5 M452.19 117.48 C488.18 74.96, 524.54 33.33, 553.88 0.5 M457.17 117.84 C491.57 79.13, 521.41 43.72, 558.86 0.86 M457.17 117.84 C494.43 75.33, 531.29 32.63, 558.86 0.86 M462.82 117.44 C502.3 72.41, 537.42 29.07, 564.51 0.46 M462.82 117.44 C491.48 84.21, 519.29 51.18, 564.51 0.46 M467.8 117.8 C507.14 73.37, 546.16 28.53, 569.49 0.82 M467.8 117.8 C500.93 78.38, 535.76 37.95, 569.49 0.82 M473.45 117.41 C496.87 93.24, 517.46 68.57, 575.14 0.43 M473.45 117.41 C507.07 79.4, 539.13 44.41, 575.14 0.43 M478.43 117.77 C514.57 76.32, 552.05 36.7, 580.12 0.79 M478.43 117.77 C509.75 83.05, 537.85 49.49, 580.12 0.79 M484.08 117.37 C524.69 71.13, 563.31 26.75, 585.77 0.39 M484.08 117.37 C516.62 79.95, 548.83 44.82, 585.77 0.39 M489.06 117.73 C524.3 73.99, 562.07 32.85, 590.75 0.75 M489.06 117.73 C517.31 84.69, 546.13 50.95, 590.75 0.75 M494.71 117.34 C522.88 85.08, 550.73 54.58, 596.4 0.36 M494.71 117.34 C519.67 88.23, 546.55 58.18, 596.4 0.36 M499.69 117.7 C534.18 77.13, 566.95 37.03, 601.38 0.72 M499.69 117.7 C528.58 85.05, 556.89 50.84, 601.38 0.72 M505.34 117.31 C528.68 92.35, 549.87 67.6, 607.03 0.33 M505.34 117.31 C546.28 70.28, 584.87 25.57, 607.03 0.33 M510.32 117.67 C549.47 70.48, 589.78 23.13, 612.01 0.69 M510.32 117.67 C547.4 76.95, 582.78 35.78, 612.01 0.69 M515.31 118.03 C540.2 92.9, 559.92 65.98, 617.66 0.29 M515.31 118.03 C543.21 85.32, 571.41 51.68, 617.66 0.29 M520.96 117.63 C551.17 82.8, 581.38 51.14, 622.64 0.65 M520.96 117.63 C544.08 90.99, 567.86 64.01, 622.64 0.65 M525.94 117.99 C554.55 86.27, 579.26 53.13, 628.29 0.26 M525.94 117.99 C562.24 76.32, 597.22 34.93, 628.29 0.26 M531.59 117.6 C567.73 78.06, 601.62 37.36, 633.27 0.62 M531.59 117.6 C568.16 76.69, 603.9 33.53, 633.27 0.62 M536.57 117.96 C573.37 73.12, 611.85 32.46, 638.92 0.22 M536.57 117.96 C575.77 74.65, 612.53 30.31, 638.92 0.22 M542.22 117.56 C572.63 81.72, 607.07 40.99, 643.9 0.58 M542.22 117.56 C568.35 85.51, 595.71 54.28, 643.9 0.58 M547.2 117.92 C579.05 84.43, 610.43 48.64, 649.55 0.19 M547.2 117.92 C583.92 76.64, 619.11 35.51, 649.55 0.19 M552.85 117.53 C592.5 73.8, 628.74 28.28, 654.53 0.55 M552.85 117.53 C572.89 93.79, 594.18 69.93, 654.53 0.55 M557.83 117.89 C588.85 83.51, 619.97 47.06, 659.52 0.91 M557.83 117.89 C580.51 91.28, 603.41 63.51, 659.52 0.91 M563.48 117.49 C589.33 86.47, 616.95 55.72, 665.16 0.51 M563.48 117.49 C592.19 84.28, 621.58 50.99, 665.16 0.51 M568.46 117.85 C605.53 74.07, 643.68 31.72, 670.15 0.87 M568.46 117.85 C591.84 92.55, 612.86 67.23, 670.15 0.87 M574.11 117.46 C608.89 76.98, 647.48 33.93, 675.79 0.48 M574.11 117.46 C608.21 79.58, 642.53 39.65, 675.79 0.48 M579.09 117.82 C613.01 79.09, 645.66 41.19, 680.78 0.84 M579.09 117.82 C604.05 88.9, 628.92 60.63, 680.78 0.84 M584.74 117.42 C608.35 89.52, 630.75 65.34, 686.42 0.44 M584.74 117.42 C609.73 87.3, 634.06 60.13, 686.42 0.44 M589.72 117.78 C630.52 71.91, 670.83 24.63, 691.41 0.8 M589.72 117.78 C619.37 81.66, 650.91 45.32, 691.41 0.8 M595.37 117.39 C622.65 88.07, 648.99 57.86, 697.05 0.41 M595.37 117.39 C618.42 90.73, 643.94 62, 697.05 0.41 M600.35 117.75 C623.02 91.38, 645.46 66.17, 702.04 0.77 M600.35 117.75 C633.2 80.55, 664.5 43.74, 702.04 0.77 M606 117.36 C628.12 90.07, 653.4 62.27, 707.68 0.38 M606 117.36 C625.77 92.9, 646.63 68.36, 707.68 0.38 M610.98 117.72 C635.91 90.1, 658.25 61.39, 712.67 0.74 M610.98 117.72 C638.14 88.32, 664.12 58.39, 712.67 0.74 M615.97 118.08 C650.22 76.25, 685.63 37.19, 717.66 1.1 M615.97 118.08 C651.5 77.31, 686.66 36.43, 717.66 1.1 M621.61 117.68 C652.92 82.61, 683.47 49.72, 721.99 2.21 M621.61 117.68 C644.02 91.07, 666.61 64.5, 721.99 2.21 M626.6 118.04 C646.91 95.25, 666.94 71.16, 725.66 4.08 M626.6 118.04 C661.85 77.44, 696.74 37.68, 725.66 4.08 M632.24 117.65 C655.02 90.31, 677.69 64.19, 729.34 5.95 M632.24 117.65 C652.73 93.12, 672.38 69.68, 729.34 5.95 M637.23 118.01 C674.33 74.63, 714.83 30.22, 733.01 7.82 M637.23 118.01 C675.38 75.69, 711.41 33.16, 733.01 7.82 M642.87 117.61 C673.61 80.25, 704.23 45.11, 735.38 11.2 M642.87 117.61 C668.56 88.29, 695.19 58.64, 735.38 11.2 M647.86 117.97 C677.95 80.66, 712.6 44.67, 737.08 15.33 M647.86 117.97 C677.34 84.12, 708.27 50.06, 737.08 15.33 M653.5 117.58 C673.6 90.97, 695.13 65.65, 740.1 17.96 M653.5 117.58 C671.46 97.51, 689.89 76.13, 740.1 17.96 M658.49 117.94 C682.5 93.33, 704.84 64.11, 740.5 23.6 M658.49 117.94 C688.64 83.35, 717.95 48.26, 740.5 23.6 M664.13 117.54 C680.66 96.48, 702.97 74.22, 740.24 30 M664.13 117.54 C683.5 94.45, 703.73 72.71, 740.24 30 M669.12 117.9 C682.25 101.53, 700.21 83.79, 739.97 36.39 M669.12 117.9 C692.2 89.46, 717.46 61.28, 739.97 36.39 M674.76 117.51 C685.89 100.59, 700.25 87.61, 740.37 42.04 M674.76 117.51 C700.78 87.64, 725.67 58.32, 740.37 42.04 M679.75 117.87 C701.93 90.76, 723.44 67.86, 740.11 48.44 M679.75 117.87 C691.02 104.42, 703.73 88.49, 740.11 48.44 M685.39 117.47 C697.64 104.26, 707.5 90.76, 739.85 54.83 M685.39 117.47 C700.15 101.41, 714.83 83.84, 739.85 54.83 M690.38 117.83 C710.05 94.95, 730.12 72.03, 740.24 60.48 M690.38 117.83 C702.49 104.73, 712.85 92.91, 740.24 60.48 M696.02 117.44 C712.06 99.59, 726.21 83.03, 739.98 66.87 M696.02 117.44 C705.45 107.04, 715.46 96.01, 739.98 66.87 M701.01 117.8 C711.61 102.84, 723.51 90.91, 739.72 73.27 M701.01 117.8 C714.3 102.85, 726.64 89.4, 739.72 73.27 M706 118.16 C717.93 104.78, 729.3 93.61, 740.11 78.91 M706 118.16 C716.08 105.73, 725.89 94.78, 740.11 78.91 M710.98 118.52 C716.67 109.77, 723.16 106.61, 739.85 85.31 M710.98 118.52 C721 106.33, 732.01 95.71, 739.85 85.31 M717.28 117.37 C722.18 111.3, 729.08 104.58, 739.59 91.71 M717.28 117.37 C722.72 112.74, 726.4 106.91, 739.59 91.71 M723.58 116.22 C728.74 109.38, 734.13 103.48, 740.64 96.6 M723.58 116.22 C727.81 111.14, 731.51 105.95, 740.64 96.6" stroke="#ffc9c9" stroke-width="0.5" fill="none"></path><path d="M29.32 0 M29.32 0 C298.17 0.81, 567.61 1.14, 710.26 0 M29.32 0 C176.34 -0.72, 322.88 -0.32, 710.26 0 M710.26 0 C729.57 -0.79, 739.27 9.96, 739.58 29.32 M710.26 0 C729.06 -1.03, 738.89 7.51, 739.58 29.32 M739.58 29.32 C737.7 42.63, 738.44 52.95, 739.58 87.97 M739.58 29.32 C739.15 42.98, 739.31 57.41, 739.58 87.97 M739.58 87.97 C738.26 105.71, 727.86 118.51, 710.26 117.3 M739.58 87.97 C737.35 108.72, 727.73 118.75, 710.26 117.3 M710.26 117.3 C482.85 114.27, 254.85 115.45, 29.32 117.3 M710.26 117.3 C569.52 119.51, 428.34 119.92, 29.32 117.3 M29.32 117.3 C11.04 118.93, 0.18 107.91, 0 87.97 M29.32 117.3 C10.42 116.11, -1.74 108.39, 0 87.97 M0 87.97 C1.83 77.05, 1.97 62.47, 0 29.32 M0 87.97 C0.04 70.65, 0.1 53.18, 0 29.32 M0 29.32 C-1.84 10.79, 10.1 -1.1, 29.32 0 M0 29.32 C0.01 10.4, 9.33 -0.69, 29.32 0" stroke="#1971c2" stroke-width="1" fill="none"></path></g><g transform="translate(27.604592905202253 250.5633947379191) rotate(0 360.5411376953125 45.36346313624853)"><text x="360.5411376953125" y="0" font-family="Virgil, Segoe UI Emoji" font-size="72.58154101799767px" fill="#1971c2" text-anchor="middle" style="white-space: pre;" direction="ltr" dominant-baseline="text-before-edge">RA 22 11033010027</text></g><g stroke-linecap="round" transform="translate(149.16890604672926 10) rotate(0 64.61413495026761 278.33781209346006)"><path d="M7.86 8.16 C7.86 8.16, 7.86 8.16, 7.86 8.16 M7.86 8.16 C7.86 8.16, 7.86 8.16, 7.86 8.16 M3.66 19.09 C8.52 11.77, 15.34 6.03, 18.1 2.48 M3.66 19.09 C8.53 15.8, 10.83 10.84, 18.1 2.48 M2.75 26.24 C9.48 15.93, 19.37 6.65, 24.4 1.33 M2.75 26.24 C7.47 20.51, 12.64 15.02, 24.4 1.33 M1.83 33.39 C8.37 25.08, 13.53 17.52, 30.7 0.18 M1.83 33.39 C13.33 19.63, 24.17 6.91, 30.7 0.18 M1.57 39.79 C9 31.48, 17.64 21.34, 34.37 2.05 M1.57 39.79 C14.99 26.63, 26.13 10.72, 34.37 2.05 M1.96 45.43 C11.52 35.07, 17.52 25.71, 39.36 2.41 M1.96 45.43 C12.2 33.86, 22.57 23.24, 39.36 2.41 M1.7 51.83 C14.43 39.35, 24.65 24.17, 45 2.02 M1.7 51.83 C14.58 37.27, 26.68 22.41, 45 2.02 M1.44 58.23 C16.16 40.93, 28.74 27.17, 49.99 2.38 M1.44 58.23 C19.29 38.06, 37.03 19.45, 49.99 2.38 M1.83 63.87 C11.29 51.18, 25.13 37.64, 55.63 1.98 M1.83 63.87 C17.25 44.64, 35.35 23.98, 55.63 1.98 M1.57 70.27 C21.19 49.12, 39.35 28.55, 60.62 2.34 M1.57 70.27 C15.22 54.19, 29.34 38.8, 60.62 2.34 M1.97 75.91 C15.93 60.67, 30.96 39.61, 66.26 1.95 M1.97 75.91 C21.15 53.79, 40.95 30.12, 66.26 1.95 M1.71 82.31 C21.72 61.05, 39.87 37.66, 71.25 2.31 M1.71 82.31 C24.19 55.65, 47.87 28.28, 71.25 2.31 M2.1 87.95 C27.34 58.46, 53.57 28.99, 76.89 1.91 M2.1 87.95 C19.67 69.31, 36.63 49.85, 76.89 1.91 M1.84 94.35 C26.85 70.04, 48.23 42.74, 81.88 2.27 M1.84 94.35 C21.07 73.35, 40.04 52.07, 81.88 2.27 M1.58 100.75 C28.93 67.42, 59.83 36.45, 87.52 1.88 M1.58 100.75 C28.5 70.19, 55.08 39.84, 87.52 1.88 M1.97 106.39 C29.35 78.26, 54.23 46.47, 92.51 2.24 M1.97 106.39 C34.19 69.53, 66.73 32.35, 92.51 2.24 M1.71 112.79 C39.13 69.46, 77.37 25.5, 98.81 1.09 M1.71 112.79 C31.98 77.58, 61.09 43.27, 98.81 1.09 M2.1 118.43 C24.92 88.09, 48.84 61.73, 103.14 2.21 M2.1 118.43 C25.8 90.48, 51.76 61.28, 103.14 2.21 M1.84 124.83 C34.45 85.38, 69.56 50.05, 108.12 2.57 M1.84 124.83 C29.03 94.53, 55.86 62.36, 108.12 2.57 M1.58 131.23 C32.09 94.66, 62.56 58.39, 112.46 3.68 M1.58 131.23 C38.27 90.04, 75.1 48.57, 112.46 3.68 M1.98 136.87 C39.67 94.83, 72.5 52.31, 116.13 5.55 M1.98 136.87 C32.02 102, 61.39 67.96, 116.13 5.55 M1.72 143.27 C46.93 89.97, 93.5 35.77, 119.81 7.42 M1.72 143.27 C42.5 100.18, 80.68 54.85, 119.81 7.42 M2.11 148.91 C29.87 117.71, 55.37 90.14, 122.82 10.04 M2.11 148.91 C46.52 99.65, 89.63 48.22, 122.82 10.04 M1.85 155.31 C43.36 108.32, 84.39 60.56, 125.19 13.42 M1.85 155.31 C34.16 118.23, 66 79.07, 125.19 13.42 M1.59 161.71 C33.09 128.26, 62.81 94.29, 126.89 17.56 M1.59 161.71 C33.95 121.89, 69.5 82.78, 126.89 17.56 M1.98 167.35 C37.11 128.68, 75.24 85.44, 128.6 21.69 M1.98 167.35 C34.34 130.11, 66.88 93.86, 128.6 21.69 M1.72 173.75 C51.31 114.84, 104.62 57.49, 130.31 25.82 M1.72 173.75 C54.52 114.08, 103.8 56.3, 130.31 25.82 M2.11 179.39 C28.07 148.46, 56.41 118.71, 130.05 32.22 M2.11 179.39 C39.42 135.62, 78.14 91.89, 130.05 32.22 M1.85 185.79 C44.33 137.17, 87.48 88.77, 130.44 37.86 M1.85 185.79 C33.5 150.67, 64.21 115.94, 130.44 37.86 M1.59 192.19 C42.79 147.73, 79.55 104.63, 130.18 44.26 M1.59 192.19 C39.02 149.38, 76.15 108.43, 130.18 44.26 M1.99 197.83 C37.46 155.05, 74.88 113.98, 130.57 49.91 M1.99 197.83 C51.97 140.37, 101.56 82.51, 130.57 49.91 M1.72 204.23 C50.18 151.42, 95.66 95.01, 130.31 56.3 M1.72 204.23 C31.29 169.67, 61.28 137.19, 130.31 56.3 M2.12 209.87 C40.53 163.51, 76.95 119.99, 130.05 62.7 M2.12 209.87 C47.61 159.73, 89.92 109.55, 130.05 62.7 M1.86 216.27 C52.23 157.38, 103.34 100.1, 130.45 68.34 M1.86 216.27 C52.44 156.73, 104 98.06, 130.45 68.34 M1.6 222.66 C29.99 187.28, 62.33 151.09, 130.18 74.74 M1.6 222.66 C36.61 181.55, 73.95 141.25, 130.18 74.74 M1.99 228.31 C49.74 168.85, 100.68 110.75, 130.58 80.38 M1.99 228.31 C52.19 171.31, 101.29 114.16, 130.58 80.38 M1.73 234.71 C45.94 183.56, 90.35 133.35, 130.32 86.78 M1.73 234.71 C37.95 191.35, 74.13 149.75, 130.32 86.78 M2.12 240.35 C48.43 188.19, 95.23 132.27, 130.06 93.18 M2.12 240.35 C34.7 202.2, 65.89 165.78, 130.06 93.18 M1.86 246.75 C40.27 204.22, 76.59 162.41, 130.45 98.82 M1.86 246.75 C43.98 197.07, 85.49 150.3, 130.45 98.82 M2.26 252.39 C46.1 201.74, 92.18 152.2, 130.19 105.22 M2.26 252.39 C50.19 195.99, 98.81 141.08, 130.19 105.22 M2 258.79 C44.84 209.53, 90.32 156.87, 130.58 110.86 M2 258.79 C36.71 221.02, 68.9 182.49, 130.58 110.86 M1.73 265.19 C44.69 214.6, 89.11 164.55, 130.32 117.26 M1.73 265.19 C29.65 231.82, 57.26 198.84, 130.32 117.26 M2.13 270.83 C49.11 214.34, 99.58 156.43, 130.06 123.66 M2.13 270.83 C34.78 233.96, 65.43 197.13, 130.06 123.66 M1.87 277.23 C54.87 217.5, 104.74 160.45, 130.46 129.3 M1.87 277.23 C45.86 226.01, 90.07 176.18, 130.46 129.3 M2.26 282.87 C41.5 238.26, 80.93 195.68, 130.19 135.7 M2.26 282.87 C47.5 229.66, 93.58 177.22, 130.19 135.7 M2 289.27 C46.66 236.49, 88.9 186.27, 130.59 141.34 M2 289.27 C51.94 234.58, 98.73 179.02, 130.59 141.34 M1.74 295.66 C51.9 241.29, 99.95 182.39, 130.33 147.74 M1.74 295.66 C43.07 249.38, 83.31 202.66, 130.33 147.74 M2.13 301.31 C31.42 270.68, 59.06 239.19, 130.72 153.38 M2.13 301.31 C37.11 260.76, 72.31 221.31, 130.72 153.38 M1.87 307.71 C43.05 262.4, 82.54 215.29, 130.46 159.78 M1.87 307.71 C48.49 254.6, 96.13 199.34, 130.46 159.78 M2.27 313.35 C35.34 269.2, 73.83 228.11, 130.2 166.18 M2.27 313.35 C37.09 273.42, 72.01 233.43, 130.2 166.18 M2.01 319.75 C27.98 289, 57.66 256.83, 130.59 171.82 M2.01 319.75 C34.24 283.32, 66.71 245.71, 130.59 171.82 M1.74 326.14 C50.53 268.24, 99.88 214.38, 130.33 178.22 M1.74 326.14 C42.34 282.41, 81.08 237.16, 130.33 178.22 M2.14 331.79 C51.15 278.65, 100.02 221.37, 130.73 183.86 M2.14 331.79 C52.5 274.76, 104.39 215.05, 130.73 183.86 M1.88 338.19 C50.25 279.83, 100.71 223.56, 130.46 190.26 M1.88 338.19 C52.24 279.82, 102.71 223.95, 130.46 190.26 M2.27 343.83 C42.21 296.05, 83.26 252.01, 130.2 196.66 M2.27 343.83 C40.76 298.13, 81.09 250.97, 130.2 196.66 M2.01 350.23 C46.56 296.1, 89.85 245.91, 130.6 202.3 M2.01 350.23 C35.43 313.95, 66.62 277.89, 130.6 202.3 M1.75 356.62 C51.18 302.46, 97.89 248.25, 130.34 208.7 M1.75 356.62 C27.68 324.74, 55.88 291.58, 130.34 208.7 M2.14 362.27 C50.15 309.18, 96.15 255.03, 130.73 214.34 M2.14 362.27 C40.27 321.06, 77.36 276.64, 130.73 214.34 M1.88 368.66 C35.83 330.21, 68.57 293.86, 130.47 220.74 M1.88 368.66 C31.07 335.35, 60.16 301.57, 130.47 220.74 M2.28 374.31 C41.18 330.7, 76.75 284.88, 130.21 227.14 M2.28 374.31 C31.12 341.82, 60.44 308.9, 130.21 227.14 M2.02 380.71 C40.34 333.84, 81.15 288.24, 130.6 232.78 M2.02 380.71 C46.92 330.62, 90.62 280.33, 130.6 232.78 M2.41 386.35 C33.36 353.11, 61.53 314.98, 130.34 239.18 M2.41 386.35 C34.19 349.66, 65.19 314.61, 130.34 239.18 M2.15 392.75 C38.33 352.72, 70.37 311.66, 130.74 244.82 M2.15 392.75 C33.23 357.74, 66.38 319.27, 130.74 244.82 M1.89 399.14 C39.45 356.22, 75.66 311.98, 130.47 251.22 M1.89 399.14 C35.4 363.19, 67.03 326.46, 130.47 251.22 M2.28 404.79 C38.04 364.91, 73.67 323.2, 130.21 257.62 M2.28 404.79 C46.85 353.25, 92.4 300.86, 130.21 257.62 M2.02 411.18 C47.69 362.18, 90.72 309.65, 130.61 263.26 M2.02 411.18 C29.35 377.95, 57.69 346.62, 130.61 263.26 M2.41 416.83 C41.75 375.46, 78.11 332.97, 130.35 269.66 M2.41 416.83 C42.69 368.25, 83.6 321.73, 130.35 269.66 M2.15 423.23 C42.92 380.87, 80.12 336.12, 130.74 275.3 M2.15 423.23 C34.02 388.15, 64.89 353.54, 130.74 275.3 M1.89 429.62 C36.04 390.76, 71.56 351.89, 130.48 281.7 M1.89 429.62 C45.71 379.88, 89.89 330.15, 130.48 281.7 M2.29 435.27 C35.43 391.36, 72.92 350.56, 130.22 288.1 M2.29 435.27 C38.23 395.12, 75.14 352.84, 130.22 288.1 M2.02 441.66 C49.11 384.99, 97.6 332.63, 130.61 293.74 M2.02 441.66 C38.27 399.34, 72.85 358.14, 130.61 293.74 M2.42 447.31 C53.05 388.44, 104.98 330.38, 130.35 300.14 M2.42 447.31 C30.53 414.37, 57.64 383.4, 130.35 300.14 M2.16 453.71 C49.43 397.64, 98.03 342.72, 130.75 305.78 M2.16 453.71 C40.99 407.91, 80.72 361.66, 130.75 305.78 M1.9 460.1 C47.94 403.41, 97.8 347.86, 130.48 312.18 M1.9 460.1 C29.1 429.33, 54.44 399.17, 130.48 312.18 M2.29 465.75 C35.07 429.18, 70.57 388.43, 130.88 317.82 M2.29 465.75 C36.59 424.85, 72.24 384.18, 130.88 317.82 M2.03 472.14 C46.96 421.1, 95 365.63, 130.62 324.22 M2.03 472.14 C42.25 427.63, 79.94 384.13, 130.62 324.22 M2.42 477.79 C26.94 448.38, 54.19 417.93, 130.36 330.62 M2.42 477.79 C46.26 427.95, 88.17 378.51, 130.36 330.62 M2.16 484.18 C33.54 446.61, 68.7 410.27, 130.75 336.26 M2.16 484.18 C32.35 447.75, 65.63 410.01, 130.75 336.26 M1.9 490.58 C50.09 431.21, 101.34 373.09, 130.49 342.66 M1.9 490.58 C44.1 440.32, 89.7 389.05, 130.49 342.66 M2.3 496.23 C32.42 461.24, 62.6 426.36, 130.88 348.3 M2.3 496.23 C38.62 451.41, 77.18 406.88, 130.88 348.3 M2.03 502.62 C31.08 467.25, 59.08 431.68, 130.62 354.7 M2.03 502.62 C31.73 468.23, 60.25 435.03, 130.62 354.7 M2.43 508.27 C30.73 474.6, 61.72 439.61, 130.36 361.1 M2.43 508.27 C52.7 451.65, 101.02 395.72, 130.36 361.1 M2.17 514.66 C43.67 467.87, 85.35 418.25, 130.76 366.74 M2.17 514.66 C33.53 480.03, 62.67 447.29, 130.76 366.74 M1.91 521.06 C25.86 490.64, 54.77 460.47, 130.49 373.14 M1.91 521.06 C45.95 470, 90.69 418.57, 130.49 373.14 M2.3 526.71 C38.86 484.32, 71.37 444.39, 130.89 378.78 M2.3 526.71 C38.92 484.61, 75.23 444.74, 130.89 378.78 M2.04 533.1 C41.22 486.76, 86.07 439.36, 130.63 385.18 M2.04 533.1 C39.8 492.02, 76.04 449.78, 130.63 385.18 M3.09 537.99 C40.26 495.05, 78.59 451.61, 130.37 391.58 M3.09 537.99 C51.46 483.66, 99.93 427.86, 130.37 391.58 M4.8 542.13 C47.46 494.21, 92.25 443.14, 130.76 397.22 M4.8 542.13 C36.1 507.25, 66.06 472.95, 130.76 397.22 M6.5 546.26 C29.41 514.92, 56.32 487.42, 130.5 403.62 M6.5 546.26 C39.33 507.86, 72.75 470.47, 130.5 403.62 M8.87 549.64 C38.61 515.55, 69.67 477.37, 130.89 409.26 M8.87 549.64 C45.7 504.9, 85.01 461.27, 130.89 409.26 M12.54 551.51 C43.99 517.87, 69.21 487.53, 130.63 415.66 M12.54 551.51 C54.28 505.85, 92.82 459.64, 130.63 415.66 M16.22 553.38 C39.34 523.77, 65.87 497.84, 130.37 422.06 M16.22 553.38 C50.16 510.95, 86.42 470.04, 130.37 422.06 M19.23 556 C45.43 527.05, 73.04 496.76, 130.76 427.7 M19.23 556 C53.24 518.81, 85.39 481.13, 130.76 427.7 M23.57 557.12 C46.63 528.25, 72.99 499.95, 130.5 434.1 M23.57 557.12 C60.08 516.94, 95.51 475.63, 130.5 434.1 M27.24 558.99 C50.76 534.36, 72.35 507.79, 130.9 439.74 M27.24 558.99 C62.94 518.38, 97.9 477.99, 130.9 439.74 M32.88 558.59 C61.73 524.33, 90.36 490.35, 130.64 446.14 M32.88 558.59 C70.58 516.16, 108.47 474.14, 130.64 446.14 M37.87 558.95 C59.06 533.34, 80.99 507.73, 131.03 451.78 M37.87 558.95 C70.97 520.62, 105.11 482.56, 131.03 451.78 M43.51 558.56 C76.97 518.92, 113.56 477.9, 130.77 458.18 M43.51 558.56 C73.23 526.78, 101.72 493.9, 130.77 458.18 M48.5 558.92 C77.94 527.15, 108.53 490.28, 130.51 464.58 M48.5 558.92 C75.86 528.57, 103.76 495.19, 130.51 464.58 M54.14 558.52 C80.66 528.76, 107.51 498.11, 130.9 470.22 M54.14 558.52 C82.34 527.8, 108.1 496.31, 130.9 470.22 M59.13 558.88 C73.67 539.5, 92.78 520.66, 130.64 476.62 M59.13 558.88 C84.07 530.26, 107.87 502.73, 130.64 476.62 M64.77 558.49 C89.89 534.08, 112.73 505.97, 131.04 482.26 M64.77 558.49 C87.22 532.96, 111.11 506.07, 131.04 482.26 M69.76 558.85 C90.62 534.95, 108.69 512.46, 130.77 488.66 M69.76 558.85 C93.56 533.41, 114.51 507.76, 130.77 488.66 M75.4 558.45 C90.18 544.86, 103.13 529.89, 130.51 495.06 M75.4 558.45 C89.04 542.12, 104.49 526.05, 130.51 495.06 M80.39 558.81 C94.98 539.64, 109.54 521.24, 130.91 500.7 M80.39 558.81 C93.17 543.25, 105.73 528.88, 130.91 500.7 M86.03 558.42 C94.43 545.29, 106.51 534, 130.65 507.1 M86.03 558.42 C102.61 540.24, 118.67 520.93, 130.65 507.1 M91.02 558.78 C102.66 548.43, 112.41 536.68, 131.04 512.74 M91.02 558.78 C105.82 541.54, 121.05 523.95, 131.04 512.74 M96.66 558.38 C108.96 546.21, 119.38 532.31, 130.78 519.14 M96.66 558.38 C103.55 551.13, 111.21 541.32, 130.78 519.14 M101.65 558.74 C109.45 551.38, 115.05 543.4, 130.52 525.54 M101.65 558.74 C111.82 545.79, 123.3 534.14, 130.52 525.54 M107.29 558.35 C113.91 553.27, 117.39 545.91, 129.6 532.69 M107.29 558.35 C112.89 551.6, 118.65 545.2, 129.6 532.69" stroke="#ffc9c9" stroke-width="0.5" fill="none"></path><path d="M32 0 M32 0 C57.44 -0.07, 80.21 -1.17, 97.23 0 M32 0 C58.11 -1.21, 83.1 -0.15, 97.23 0 M97.23 0 C119.08 1.7, 128.27 12.13, 129.23 32 M97.23 0 C120.36 -1.14, 128.27 9.21, 129.23 32 M129.23 32 C127.36 153.44, 127.77 275.39, 129.23 524.68 M129.23 32 C128.75 166.35, 129.26 300.38, 129.23 524.68 M129.23 524.68 C128.55 547.39, 120.51 557.59, 97.23 556.68 M129.23 524.68 C131.08 547.38, 118.24 557.41, 97.23 556.68 M97.23 556.68 C79.34 556.65, 66.56 556.12, 32 556.68 M97.23 556.68 C79.38 555.52, 62.99 556.46, 32 556.68 M32 556.68 C8.87 557.59, -0.94 544.61, 0 524.68 M32 556.68 C11.17 558.59, -0.19 546.93, 0 524.68 M0 524.68 C-1.57 346.33, -1.94 166.19, 0 32 M0 524.68 C-1.37 342.46, -0.82 161.14, 0 32 M0 32 C-0.19 8.68, 10.84 -1.55, 32 0 M0 32 C-2.03 9.87, 12.19 2.14, 32 0" stroke="#f08c00" stroke-width="1" fill="none"></path></g><g stroke-linecap="round" transform="translate(11.988127229238216 390.72636439926873) rotate(0 369.7916646384541 58.64975326255052)"><path d="M7.15 7.54 C7.15 7.54, 7.15 7.54, 7.15 7.54 M7.15 7.54 C7.15 7.54, 7.15 7.54, 7.15 7.54 M3.61 17.71 C7.37 13.04, 11.85 5.72, 16.73 2.62 M3.61 17.71 C7.84 11.74, 13.16 6.86, 16.73 2.62 M2.69 24.86 C11.5 16.89, 17.19 8.74, 23.03 1.47 M2.69 24.86 C7.64 20.66, 10.91 15.01, 23.03 1.47 M2.43 31.26 C12.93 18.99, 21.14 9.81, 29.33 0.32 M2.43 31.26 C11.69 20, 23.02 7.24, 29.33 0.32 M2.17 37.66 C9.62 29.28, 16.45 22.79, 34.97 -0.08 M2.17 37.66 C12.63 24.06, 25 10.57, 34.97 -0.08 M2.56 43.3 C14.42 29.5, 29.38 15.84, 39.96 0.28 M2.56 43.3 C11.66 32.28, 21.73 20.84, 39.96 0.28 M2.3 49.7 C13.23 37.07, 21.83 22.6, 45.6 -0.11 M2.3 49.7 C12.72 38.21, 24.94 24.68, 45.6 -0.11 M2.04 56.1 C13.21 41.37, 26.94 26.79, 50.59 0.25 M2.04 56.1 C20.94 34.41, 40.17 11.88, 50.59 0.25 M2.43 61.74 C17.21 40.78, 34.62 21.6, 56.23 -0.14 M2.43 61.74 C15.61 46.88, 27.66 32.74, 56.23 -0.14 M2.17 68.14 C24.67 44.67, 43.6 19.53, 61.22 0.22 M2.17 68.14 C15.52 53.07, 26.17 39.79, 61.22 0.22 M2.57 73.78 C25.17 49.97, 47.7 23.53, 66.86 -0.18 M2.57 73.78 C20.76 54.44, 38.53 33.76, 66.86 -0.18 M2.31 80.18 C25.93 51.57, 50.54 21.06, 71.85 0.18 M2.31 80.18 C22.78 57.8, 41.94 35.06, 71.85 0.18 M0.73 88.09 C29.83 55.67, 56.05 23.91, 76.83 0.54 M0.73 88.09 C23.03 63, 45.05 35.96, 76.83 0.54 M1.13 93.73 C29.3 62.49, 54.77 32.05, 82.48 0.15 M1.13 93.73 C19.17 72.62, 38.61 48.9, 82.48 0.15 M2.18 98.62 C28.24 71.35, 53.4 39.69, 87.46 0.51 M2.18 98.62 C25.84 72.31, 50.4 44.52, 87.46 0.51 M3.88 102.75 C35.62 64.18, 71.38 26.82, 93.11 0.11 M3.88 102.75 C28.11 72.91, 53.17 43.48, 93.11 0.11 M5.59 106.89 C43.29 67.11, 77.97 25.8, 98.09 0.47 M5.59 106.89 C39.78 66.67, 76.15 25.07, 98.09 0.47 M8.61 109.51 C34.48 77.22, 65.3 43.89, 103.74 0.08 M8.61 109.51 C31.76 83.72, 56.51 57.83, 103.74 0.08 M10.97 112.89 C45.18 74.81, 75.11 37.74, 108.72 0.44 M10.97 112.89 C50.43 68.12, 88.16 24.83, 108.72 0.44 M13.99 115.51 C37.83 91.96, 60.75 66.86, 114.37 0.04 M13.99 115.51 C48.54 76.17, 83.99 37.35, 114.37 0.04 M18.32 116.63 C54.69 74.41, 89.2 36.01, 119.36 0.4 M18.32 116.63 C46.99 83.97, 74.35 51.45, 119.36 0.4 M23.31 116.99 C58.16 75.81, 97.21 36.05, 125 0.01 M23.31 116.99 C44.76 91.26, 66.09 66.98, 125 0.01 M28.3 117.35 C60.67 79.13, 95.88 39.49, 129.99 0.37 M28.3 117.35 C52.33 89.5, 76.31 61.21, 129.99 0.37 M33.28 117.71 C74.18 72.06, 114.55 25, 135.63 -0.03 M33.28 117.71 C64.98 83.06, 95.79 48.04, 135.63 -0.03 M38.93 117.31 C68.88 84.76, 97.55 50.26, 140.62 0.33 M38.93 117.31 C66.25 85.86, 92.4 55.17, 140.62 0.33 M43.91 117.67 C76.38 78.58, 112.71 37.29, 146.26 -0.06 M43.91 117.67 C69.34 89.14, 94.59 60.68, 146.26 -0.06 M49.56 117.28 C77.89 82.04, 110.61 50.87, 151.25 0.3 M49.56 117.28 C84.8 76.91, 119.07 37.27, 151.25 0.3 M54.54 117.64 C78.36 87.48, 108.79 55.14, 156.89 -0.1 M54.54 117.64 C85.1 82.59, 116.97 45.33, 156.89 -0.1 M60.19 117.24 C95.98 76.58, 130.08 39.43, 161.88 0.26 M60.19 117.24 C89.66 84.63, 118.5 50.44, 161.88 0.26 M65.17 117.6 C102.11 76.09, 137.73 35.17, 167.52 -0.13 M65.17 117.6 C98.6 78.29, 134.13 38.71, 167.52 -0.13 M70.82 117.21 C99.97 81.34, 132.72 45.81, 172.51 0.23 M70.82 117.21 C102.02 79.4, 133.71 42.52, 172.51 0.23 M75.8 117.57 C103.38 84.59, 132.13 52.74, 177.49 0.59 M75.8 117.57 C95.87 94.44, 115.39 70.33, 177.49 0.59 M81.45 117.18 C117.97 77.9, 152.49 34.15, 183.14 0.2 M81.45 117.18 C104.51 89.79, 129.11 63.57, 183.14 0.2 M86.43 117.54 C109.05 91.27, 130.94 66.44, 188.12 0.56 M86.43 117.54 C126.09 73.72, 163.6 30.4, 188.12 0.56 M92.08 117.14 C127.99 76.55, 162.07 33.14, 193.77 0.16 M92.08 117.14 C121.26 84.73, 147.92 54.52, 193.77 0.16 M97.06 117.5 C120.87 90.67, 144.36 64.44, 198.75 0.52 M97.06 117.5 C131.21 79.64, 164.64 39.06, 198.75 0.52 M102.71 117.11 C129.59 85.6, 157.25 54.48, 204.4 0.13 M102.71 117.11 C129.86 85.27, 156.78 54.42, 204.4 0.13 M107.69 117.47 C136.4 84.36, 163.85 54.11, 209.38 0.49 M107.69 117.47 C145.26 75.27, 182.66 33.4, 209.38 0.49 M113.34 117.07 C148.99 79.91, 182.32 38.1, 215.03 0.09 M113.34 117.07 C138.08 90.36, 163.49 62.16, 215.03 0.09 M118.32 117.43 C157.43 71.97, 194.64 29.86, 220.01 0.45 M118.32 117.43 C152.72 77.7, 188.24 36.61, 220.01 0.45 M123.97 117.04 C156.25 80.44, 189.96 41.25, 225.66 0.06 M123.97 117.04 C148.8 88.11, 173.58 59.02, 225.66 0.06 M128.95 117.4 C158.35 81.84, 191.41 46.71, 230.64 0.42 M128.95 117.4 C167.9 71.87, 206.74 25.57, 230.64 0.42 M133.94 117.76 C159.58 85.39, 185.02 55.82, 236.29 0.02 M133.94 117.76 C168.65 78.52, 203.21 37.21, 236.29 0.02 M139.58 117.36 C166.45 85.5, 195.94 53.04, 241.27 0.38 M139.58 117.36 C177.25 71.46, 215.98 26.63, 241.27 0.38 M144.57 117.72 C173.54 85.22, 199.77 55.62, 246.92 -0.01 M144.57 117.72 C182.68 74.69, 220.59 31.41, 246.92 -0.01 M150.21 117.33 C174.63 89.24, 196.49 63.87, 251.9 0.35 M150.21 117.33 C173.69 87.35, 198.86 58.54, 251.9 0.35 M155.2 117.69 C194.89 73.27, 234.38 25.08, 257.55 -0.05 M155.2 117.69 C193.76 71.09, 233.36 26.87, 257.55 -0.05 M160.84 117.29 C183.68 91.29, 202.75 67.16, 262.53 0.31 M160.84 117.29 C189.63 82.92, 219.12 49.07, 262.53 0.31 M165.83 117.65 C201.53 77.47, 234.63 35.56, 268.18 -0.08 M165.83 117.65 C194.31 84.5, 222.73 52.11, 268.18 -0.08 M171.47 117.26 C203.32 79.96, 234.87 46, 273.16 0.28 M171.47 117.26 C194.61 88.98, 217.22 62.87, 273.16 0.28 M176.46 117.62 C212.07 78.86, 245.35 37.61, 278.15 0.64 M176.46 117.62 C206.92 82.07, 237.43 46.42, 278.15 0.64 M182.1 117.23 C216.19 78.2, 250.74 37.93, 283.79 0.25 M182.1 117.23 C202.35 92.86, 223.11 67.56, 283.79 0.25 M187.09 117.59 C217.84 84.48, 245.41 47.08, 288.78 0.61 M187.09 117.59 C223.67 76.65, 259.97 34.52, 288.78 0.61 M192.73 117.19 C215.16 92.96, 236.07 69.54, 294.42 0.21 M192.73 117.19 C228.68 77.16, 263.52 37.35, 294.42 0.21 M197.72 117.55 C219.8 92.25, 240.19 72.44, 299.41 0.57 M197.72 117.55 C229.26 82.94, 259.65 46.78, 299.41 0.57 M203.36 117.16 C234.7 78.41, 272.35 40.87, 305.05 0.18 M203.36 117.16 C242.91 72.45, 280.58 26.42, 305.05 0.18 M208.35 117.52 C244.37 76.34, 282.68 35.79, 310.04 0.54 M208.35 117.52 C235.11 87.21, 261.63 56.8, 310.04 0.54 M213.99 117.12 C254.22 70.23, 294.18 28.09, 315.68 0.14 M213.99 117.12 C242.53 85.34, 269.59 52.91, 315.68 0.14 M218.98 117.48 C254.89 74.48, 290.92 33.42, 320.67 0.5 M218.98 117.48 C252.42 79.07, 283.49 42.8, 320.67 0.5 M224.62 117.09 C262.32 74.73, 299.27 31.64, 326.31 0.11 M224.62 117.09 C263.15 72.72, 299.27 29.7, 326.31 0.11 M229.61 117.45 C258.62 83.59, 285.1 51.05, 331.3 0.47 M229.61 117.45 C268.89 72.85, 307.6 28.35, 331.3 0.47 M234.6 117.81 C267.13 78.64, 302.55 37.15, 336.94 0.07 M234.6 117.81 C258.01 93.13, 279.43 68, 336.94 0.07 M240.24 117.41 C274.75 78.52, 306.87 45.35, 341.93 0.43 M240.24 117.41 C276.66 76.04, 313.43 35.5, 341.93 0.43 M245.23 117.77 C277.63 82.6, 304.35 49.41, 347.57 0.04 M245.23 117.77 C285.48 71.29, 324.99 25.86, 347.57 0.04 M250.87 117.38 C282.69 78.97, 314.97 45.67, 352.56 0.4 M250.87 117.38 C287.07 74.04, 324.58 32.04, 352.56 0.4 M255.86 117.74 C284.14 84.65, 312.6 50.75, 358.2 0 M255.86 117.74 C283.82 85.99, 311.37 55.05, 358.2 0 M261.5 117.34 C285.79 88.51, 313.58 58.28, 363.19 0.36 M261.5 117.34 C295.89 76.92, 329.45 37.12, 363.19 0.36 M266.49 117.7 C295.77 85.95, 322.74 51.62, 368.18 0.72 M266.49 117.7 C289.3 93.16, 310.63 68.43, 368.18 0.72 M272.13 117.31 C313.97 69.33, 351.37 25.69, 373.82 0.33 M272.13 117.31 C311.4 70.68, 351.84 23.68, 373.82 0.33 M277.12 117.67 C315.11 77.01, 349.79 36.19, 378.81 0.69 M277.12 117.67 C300.88 92.59, 321.6 66.63, 378.81 0.69 M282.76 117.28 C310.41 85.2, 338.4 50.6, 384.45 0.3 M282.76 117.28 C312.69 83.26, 342.37 50.66, 384.45 0.3 M287.75 117.64 C310.76 91.69, 335.1 64.46, 389.44 0.66 M287.75 117.64 C315.53 85.9, 341.34 53.85, 389.44 0.66 M293.39 117.24 C329.86 76.25, 363.25 35.54, 395.08 0.26 M293.39 117.24 C329.32 77.77, 363.76 37.29, 395.08 0.26 M298.38 117.6 C334.78 77.53, 370.19 32.71, 400.07 0.62 M298.38 117.6 C335.57 73.76, 373.06 32.44, 400.07 0.62 M304.02 117.21 C343.35 74.15, 378.88 29.18, 405.71 0.23 M304.02 117.21 C334.97 80.75, 368.51 41.62, 405.71 0.23 M309.01 117.57 C334.46 84.9, 361.68 54.08, 410.7 0.59 M309.01 117.57 C340.76 83.52, 371.72 48.07, 410.7 0.59 M314.65 117.17 C351.12 75.18, 385.39 34.45, 416.34 0.19 M314.65 117.17 C353.54 73.21, 390.58 28.69, 416.34 0.19 M319.64 117.53 C338.69 94, 360.32 70.4, 421.33 0.55 M319.64 117.53 C350.71 82.93, 381.42 47.28, 421.33 0.55 M324.63 117.89 C346.84 91.5, 369.65 62.41, 426.97 0.16 M324.63 117.89 C350.84 86.83, 378.03 56.06, 426.97 0.16 M330.27 117.5 C358.61 84.4, 388.31 51.26, 431.96 0.52 M330.27 117.5 C367.15 74.51, 404.7 32.08, 431.96 0.52 M335.26 117.86 C359.62 92.23, 379.36 67.24, 437.6 0.12 M335.26 117.86 C371.08 76.55, 408.5 34.17, 437.6 0.12 M340.9 117.46 C374.94 80.42, 410.27 38.86, 442.59 0.48 M340.9 117.46 C374.64 79.36, 407.22 41.7, 442.59 0.48 M345.89 117.82 C371.65 88.79, 396.66 60.7, 448.23 0.09 M345.89 117.82 C369.15 90.19, 391.84 64.88, 448.23 0.09 M351.53 117.43 C377.29 86.37, 401.29 60.41, 453.22 0.45 M351.53 117.43 C391.86 71.1, 432.07 24.38, 453.22 0.45 M356.52 117.79 C385.53 82.19, 417.46 45.35, 458.86 0.05 M356.52 117.79 C383.78 88.19, 410.02 58.06, 458.86 0.05 M362.16 117.39 C384.24 91.14, 411.24 61.35, 463.85 0.41 M362.16 117.39 C384.34 90.82, 406.8 65.27, 463.85 0.41 M367.15 117.75 C400.84 81.02, 431.55 44.1, 468.84 0.77 M367.15 117.75 C389.56 91.01, 413.91 63.64, 468.84 0.77 M372.79 117.36 C392.24 92.33, 412.77 67.61, 474.48 0.38 M372.79 117.36 C397.06 89.27, 420.42 60.89, 474.48 0.38 M377.78 117.72 C405.1 89.05, 430.96 59.22, 479.47 0.74 M377.78 117.72 C412.6 76.86, 447.92 37.08, 479.47 0.74 M383.42 117.32 C418.68 76.17, 453.33 35.46, 485.11 0.34 M383.42 117.32 C414.83 82.67, 445.38 48.65, 485.11 0.34 M388.41 117.68 C410.79 90.72, 433.5 63.47, 490.1 0.7 M388.41 117.68 C408.59 94.04, 429.08 69.94, 490.1 0.7 M394.05 117.29 C430.53 75.01, 466.43 34.44, 495.74 0.31 M394.05 117.29 C418.24 88.44, 442.55 60.46, 495.74 0.31 M399.04 117.65 C420.51 91.66, 440.54 66.95, 500.73 0.67 M399.04 117.65 C438.9 70.95, 480.65 24.02, 500.73 0.67 M404.68 117.26 C445.67 72.44, 482.75 27.61, 506.37 0.28 M404.68 117.26 C438.41 76.6, 472.62 37.3, 506.37 0.28 M409.67 117.62 C437.77 85.47, 467.88 52.8, 511.36 0.64 M409.67 117.62 C444.69 75.61, 482.23 34.35, 511.36 0.64 M415.31 117.22 C448.56 78.73, 484.39 40.55, 517 0.24 M415.31 117.22 C439.57 86.55, 465.05 56.97, 517 0.24 M420.3 117.58 C441.32 94.45, 463.43 68.68, 521.99 0.6 M420.3 117.58 C449.59 85.72, 477.94 51.34, 521.99 0.6 M425.28 117.94 C463.51 75.23, 499.39 31.23, 527.63 0.21 M425.28 117.94 C448.94 89.37, 476.06 59.87, 527.63 0.21 M430.93 117.55 C456.17 86.16, 483.55 57.72, 532.62 0.57 M430.93 117.55 C451.08 93.64, 473.99 68.75, 532.62 0.57 M435.91 117.91 C468.97 76.69, 506.08 35.75, 538.26 0.17 M435.91 117.91 C455.36 92.44, 476.97 69.35, 538.26 0.17 M441.56 117.51 C481.92 70.86, 520.06 25.62, 543.25 0.53 M441.56 117.51 C478.08 73.63, 515.04 32.04, 543.25 0.53 M446.54 117.87 C465.36 95.29, 486.97 67.83, 548.89 0.14 M446.54 117.87 C469.4 92.77, 490.36 67.58, 548.89 0.14 M452.19 117.48 C479.74 87.58, 507.2 54.63, 553.88 0.5 M452.19 117.48 C491.02 71.39, 530.85 25.66, 553.88 0.5 M457.17 117.84 C481.83 91.13, 502.99 66.98, 558.86 0.86 M457.17 117.84 C493.69 76.22, 529.11 35.32, 558.86 0.86 M462.82 117.44 C484.72 93.18, 507.69 67.72, 564.51 0.46 M462.82 117.44 C493.45 79.11, 525.65 42.95, 564.51 0.46 M467.8 117.8 C502.28 79.01, 534.87 43.02, 569.49 0.82 M467.8 117.8 C502.49 78.22, 536.16 40.43, 569.49 0.82 M473.45 117.41 C503.21 81.25, 532.36 48.38, 575.14 0.43 M473.45 117.41 C493.76 92.26, 515.12 69.84, 575.14 0.43 M478.43 117.77 C513.88 75.34, 551.44 36.22, 580.12 0.79 M478.43 117.77 C501.78 89.19, 527.04 60.74, 580.12 0.79 M484.08 117.37 C506.46 94.15, 525.78 68.71, 585.77 0.39 M484.08 117.37 C515.12 80.1, 546.7 43.92, 585.77 0.39 M489.06 117.73 C513.5 88.48, 536.96 59.62, 590.75 0.75 M489.06 117.73 C530.16 71.23, 571.02 25.45, 590.75 0.75 M494.71 117.34 C518.32 91.4, 539.37 68.21, 596.4 0.36 M494.71 117.34 C524.55 83.48, 553.3 49.81, 596.4 0.36 M499.69 117.7 C519.96 93.3, 543.46 70.45, 601.38 0.72 M499.69 117.7 C531.68 81.27, 562.12 45.44, 601.38 0.72 M505.34 117.31 C526.89 93.31, 549.61 67, 607.03 0.33 M505.34 117.31 C525.83 91.6, 547.91 66.97, 607.03 0.33 M510.32 117.67 C548.63 77.99, 584.73 31.66, 612.01 0.69 M510.32 117.67 C541.58 81.98, 571.5 47.04, 612.01 0.69 M515.31 118.03 C539.67 86.65, 566.13 60.49, 617.66 0.29 M515.31 118.03 C550.19 78.14, 586.15 36.94, 617.66 0.29 M520.96 117.63 C552.81 78.92, 589.03 37.64, 622.64 0.65 M520.96 117.63 C550.88 82.09, 582.1 46.68, 622.64 0.65 M525.94 117.99 C567.34 70.49, 606.82 21.89, 628.29 0.26 M525.94 117.99 C565.27 72.6, 605.04 27.32, 628.29 0.26 M531.59 117.6 C553.07 93.76, 578.06 66.27, 633.27 0.62 M531.59 117.6 C555.1 89.53, 579.97 61.27, 633.27 0.62 M536.57 117.96 C563.29 86.08, 592.97 53.66, 638.92 0.22 M536.57 117.96 C558.06 94.16, 580.39 68.66, 638.92 0.22 M542.22 117.56 C565.85 91.94, 586.97 64.25, 643.9 0.58 M542.22 117.56 C568.55 86.18, 594.94 55.53, 643.9 0.58 M547.2 117.92 C585.67 73.86, 625.91 28.43, 649.55 0.19 M547.2 117.92 C578.26 82, 610.66 44.31, 649.55 0.19 M552.85 117.53 C574.22 89.87, 598.36 65.11, 654.53 0.55 M552.85 117.53 C584.37 80.53, 615.96 43.48, 654.53 0.55 M557.83 117.89 C590.28 86.02, 619.71 49.47, 659.52 0.91 M557.83 117.89 C598.33 71, 637.55 25.08, 659.52 0.91 M563.48 117.49 C587.48 89.73, 610.61 65.13, 665.16 0.51 M563.48 117.49 C597.85 76.4, 632.75 37.7, 665.16 0.51 M568.46 117.85 C597.31 81.46, 628.4 44.4, 670.15 0.87 M568.46 117.85 C604.39 76.94, 640.35 35.44, 670.15 0.87 M574.11 117.46 C606.18 83.84, 634.87 47.81, 675.79 0.48 M574.11 117.46 C605.07 80.81, 636.49 45.27, 675.79 0.48 M579.09 117.82 C619.7 74.8, 658.77 29.39, 680.78 0.84 M579.09 117.82 C610.77 82.14, 642.81 45.1, 680.78 0.84 M584.74 117.42 C605.44 89.15, 629.75 65.07, 686.42 0.44 M584.74 117.42 C622.95 72.68, 662.13 29.04, 686.42 0.44 M589.72 117.78 C612.52 90.99, 632.89 66.41, 691.41 0.8 M589.72 117.78 C628.76 71.99, 668.54 27.87, 691.41 0.8 M595.37 117.39 C623.33 85.9, 646.97 58.38, 697.05 0.41 M595.37 117.39 C628.52 79, 660.74 41.99, 697.05 0.41 M600.35 117.75 C634.46 73.51, 671.31 31.46, 702.04 0.77 M600.35 117.75 C629.48 84.03, 658.89 49.74, 702.04 0.77 M606 117.36 C644.47 74.99, 681.72 29.71, 707.68 0.38 M606 117.36 C638.33 79.23, 670.18 40.03, 707.68 0.38 M610.98 117.72 C637.44 86.14, 667.32 54.21, 712.67 0.74 M610.98 117.72 C648.23 74.78, 685.05 32.78, 712.67 0.74 M615.97 118.08 C639.43 90.93, 659.92 66.42, 717.66 1.1 M615.97 118.08 C652.4 76.3, 690.1 35.21, 717.66 1.1 M621.61 117.68 C654.24 81.48, 681.57 49.09, 721.99 2.21 M621.61 117.68 C656.94 78.72, 692.02 37.01, 721.99 2.21 M626.6 118.04 C661.72 77.34, 696.47 37.54, 725.66 4.08 M626.6 118.04 C647.94 92.07, 669.07 67.84, 725.66 4.08 M632.24 117.65 C661.76 84.03, 691.55 53.37, 729.34 5.95 M632.24 117.65 C668.81 76.77, 705.47 35.24, 729.34 5.95 M637.23 118.01 C655.69 97.62, 675.03 74.42, 733.01 7.82 M637.23 118.01 C667.2 85.27, 694.85 51.58, 733.01 7.82 M642.87 117.61 C660.47 96.94, 681.11 74.58, 735.38 11.2 M642.87 117.61 C659.66 97.23, 679.98 75.06, 735.38 11.2 M647.86 117.97 C678.07 82.9, 706.21 49.57, 737.08 15.33 M647.86 117.97 C682.69 76.79, 719.69 37.31, 737.08 15.33 M653.5 117.58 C673.68 95.01, 695.89 68.9, 740.1 17.96 M653.5 117.58 C686.66 80.05, 720.56 41.28, 740.1 17.96 M658.49 117.94 C686.66 86.35, 715.49 56.73, 740.5 23.6 M658.49 117.94 C685.11 87.08, 713.79 54.88, 740.5 23.6 M664.13 117.54 C691.11 88.57, 716.49 56.25, 740.24 30 M664.13 117.54 C686.22 93.85, 707.43 70.07, 740.24 30 M669.12 117.9 C694.79 87.55, 721.02 60.09, 739.97 36.39 M669.12 117.9 C693.17 91.47, 715.75 65.41, 739.97 36.39 M674.76 117.51 C695.61 92.64, 721.24 65.07, 740.37 42.04 M674.76 117.51 C691.97 98.08, 708.54 79.89, 740.37 42.04 M679.75 117.87 C691.56 102.05, 704.33 87.26, 740.11 48.44 M679.75 117.87 C702.8 91.32, 724.25 65.78, 740.11 48.44 M685.39 117.47 C703.71 94.55, 724.73 74.2, 739.85 54.83 M685.39 117.47 C699.32 101.12, 715.39 82.2, 739.85 54.83 M690.38 117.83 C702.85 105.55, 710.29 94.87, 740.24 60.48 M690.38 117.83 C705.63 98.43, 723.23 79.67, 740.24 60.48 M696.02 117.44 C711.67 98.86, 728.4 81.92, 739.98 66.87 M696.02 117.44 C712.18 100.07, 725.82 80.99, 739.98 66.87 M701.01 117.8 C714.67 102.33, 730.74 85.05, 739.72 73.27 M701.01 117.8 C709.19 107.94, 717.92 98.31, 739.72 73.27 M706 118.16 C715.37 105.64, 724.92 95.06, 740.11 78.91 M706 118.16 C713.52 108.56, 722.77 97.67, 740.11 78.91 M710.98 118.52 C723.08 105.04, 731.49 93.64, 739.85 85.31 M710.98 118.52 C719.35 110.31, 727.04 102.41, 739.85 85.31 M717.28 117.37 C724.11 107.5, 730.44 101.4, 739.59 91.71 M717.28 117.37 C725.84 109.22, 732.87 99.19, 739.59 91.71 M723.58 116.22 C728.87 112.13, 731.34 107.52, 740.64 96.6 M723.58 116.22 C729.58 110.76, 734.3 102.79, 740.64 96.6" stroke="#ffc9c9" stroke-width="0.5" fill="none"></path><path d="M29.32 0 M29.32 0 C272.66 0.07, 518.02 0.21, 710.26 0 M29.32 0 C225.11 -0.19, 421.36 -0.15, 710.26 0 M710.26 0 C731.64 -1.36, 739.93 8.46, 739.58 29.32 M710.26 0 C727.96 -2.1, 737.54 8.85, 739.58 29.32 M739.58 29.32 C738.89 46.24, 738.91 62.8, 739.58 87.97 M739.58 29.32 C740.05 41.7, 738.92 52.22, 739.58 87.97 M739.58 87.97 C737.66 107.39, 729.25 118.49, 710.26 117.3 M739.58 87.97 C741.4 108.28, 729.26 118.68, 710.26 117.3 M710.26 117.3 C491.27 117.86, 271.85 116.95, 29.32 117.3 M710.26 117.3 C573.5 119.39, 436.6 119.85, 29.32 117.3 M29.32 117.3 C9.37 115.76, -1.39 106.6, 0 87.97 M29.32 117.3 C9.27 115.55, 0.62 105.46, 0 87.97 M0 87.97 C-2.06 75.74, -1.46 61.58, 0 29.32 M0 87.97 C-0.3 72.29, -0.42 54.6, 0 29.32 M0 29.32 C0.56 10.13, 8.77 -0.08, 29.32 0 M0 29.32 C1.41 9.93, 8.17 -1.32, 29.32 0" stroke="#1971c2" stroke-width="1" fill="none"></path></g><g transform="translate(43.608499155202026 406.63138223318083) rotate(0 344.5372314453125 45.36346313624853)"><text x="344.5372314453125" y="0" font-family="Virgil, Segoe UI Emoji" font-size="72.58154101799767px" fill="#1971c2" text-anchor="middle" style="white-space: pre;" direction="ltr" dominant-baseline="text-before-edge">RA 21 11033010027</text></g><g stroke-linecap="round" transform="translate(10 82.56664386722366) rotate(0 369.7916646384541 58.64975326255052)"><path d="M7.15 7.54 C7.15 7.54, 7.15 7.54, 7.15 7.54 M7.15 7.54 C7.15 7.54, 7.15 7.54, 7.15 7.54 M3.61 17.71 C9.12 15.04, 12.18 9.49, 16.73 2.62 M3.61 17.71 C8.75 12.23, 13.22 7.11, 16.73 2.62 M2.69 24.86 C8.47 15.66, 17.69 7.64, 23.03 1.47 M2.69 24.86 C8.36 17.61, 15.55 10.42, 23.03 1.47 M2.43 31.26 C10.88 20.5, 19.33 9.94, 29.33 0.32 M2.43 31.26 C9.32 22.57, 16.95 14.4, 29.33 0.32 M2.17 37.66 C9.84 31.45, 14.46 22.82, 34.97 -0.08 M2.17 37.66 C14.2 25.34, 25.14 10.73, 34.97 -0.08 M2.56 43.3 C10.44 32.96, 21.23 24.71, 39.96 0.28 M2.56 43.3 C10.9 33.67, 18.88 24.68, 39.96 0.28 M2.3 49.7 C19.78 29.66, 34.71 12.17, 45.6 -0.11 M2.3 49.7 C17.58 32.51, 31.97 13.85, 45.6 -0.11 M2.04 56.1 C16.75 39.56, 27.99 27.53, 50.59 0.25 M2.04 56.1 C13.44 43.29, 24.65 30.79, 50.59 0.25 M2.43 61.74 C21.29 42.53, 38.21 18.83, 56.23 -0.14 M2.43 61.74 C16.64 45.08, 31.25 28.63, 56.23 -0.14 M2.17 68.14 C19.01 49.24, 34.9 31.2, 61.22 0.22 M2.17 68.14 C18.76 49.04, 34.65 31.43, 61.22 0.22 M2.57 73.78 C26.53 46.19, 51.16 20.17, 66.86 -0.18 M2.57 73.78 C24.92 50.06, 46.13 23.93, 66.86 -0.18 M2.31 80.18 C18.29 63.06, 36.74 43.89, 71.85 0.18 M2.31 80.18 C28.77 49.29, 54.32 20.25, 71.85 0.18 M0.73 88.09 C25.38 58.09, 52.38 26.55, 76.83 0.54 M0.73 88.09 C24.81 60.39, 49.76 31.47, 76.83 0.54 M1.13 93.73 C20.95 71.38, 39.85 48.48, 82.48 0.15 M1.13 93.73 C25.16 65.4, 50.72 37.44, 82.48 0.15 M2.18 98.62 C35.17 60.8, 67.29 20.62, 87.46 0.51 M2.18 98.62 C23.69 72.23, 45.03 47.54, 87.46 0.51 M3.88 102.75 C33.69 69.66, 63.47 32.29, 93.11 0.11 M3.88 102.75 C28.08 74.63, 53.37 46.28, 93.11 0.11 M5.59 106.89 C39.2 64.46, 74.22 23.6, 98.09 0.47 M5.59 106.89 C31.29 78.14, 55.41 50.68, 98.09 0.47 M8.61 109.51 C43.96 69.36, 79.7 28.91, 103.74 0.08 M8.61 109.51 C30.99 83.63, 52.41 58.89, 103.74 0.08 M10.97 112.89 C32.69 83.56, 57.14 55.73, 108.72 0.44 M10.97 112.89 C49.03 69.75, 86.91 24.8, 108.72 0.44 M13.99 115.51 C51.45 69.12, 90.15 27.28, 114.37 0.04 M13.99 115.51 C35.65 90.25, 55.45 66.38, 114.37 0.04 M18.32 116.63 C46.2 81.76, 75.68 48.02, 119.36 0.4 M18.32 116.63 C52.85 76.42, 86.49 35.81, 119.36 0.4 M23.31 116.99 C51.96 83.56, 80.34 51.5, 125 0.01 M23.31 116.99 C55.08 80.59, 86.28 45.86, 125 0.01 M28.3 117.35 C51.73 88.43, 73.22 63.51, 129.99 0.37 M28.3 117.35 C63.32 78.31, 97.3 37.74, 129.99 0.37 M33.28 117.71 C64.54 82.52, 94.85 46.54, 135.63 -0.03 M33.28 117.71 C67.7 78.69, 102.34 38.57, 135.63 -0.03 M38.93 117.31 C58.89 93.4, 79.31 67.1, 140.62 0.33 M38.93 117.31 C68.91 83.63, 97.58 47.8, 140.62 0.33 M43.91 117.67 C80.62 77.29, 117.66 33.95, 146.26 -0.06 M43.91 117.67 C66.24 93.13, 87.71 68.74, 146.26 -0.06 M49.56 117.28 C85.54 76.58, 120.15 37.29, 151.25 0.3 M49.56 117.28 C70.92 92.93, 91.31 71.3, 151.25 0.3 M54.54 117.64 C86.93 83.29, 116.68 46.68, 156.89 -0.1 M54.54 117.64 C87.01 78.77, 122.97 40.28, 156.89 -0.1 M60.19 117.24 C100.37 73.37, 136.55 26.34, 161.88 0.26 M60.19 117.24 C96.3 75.86, 133.75 34.54, 161.88 0.26 M65.17 117.6 C92.33 87.07, 118.84 56.78, 167.52 -0.13 M65.17 117.6 C105.19 71.02, 145.08 27.05, 167.52 -0.13 M70.82 117.21 C99.2 85.26, 125.42 52.48, 172.51 0.23 M70.82 117.21 C106.81 74.69, 143.17 33.06, 172.51 0.23 M75.8 117.57 C110.2 78.86, 140.04 43.46, 177.49 0.59 M75.8 117.57 C113.06 75.06, 149.92 32.36, 177.49 0.59 M81.45 117.18 C120.93 72.15, 156.05 28.8, 183.14 0.2 M81.45 117.18 C110.11 83.95, 137.92 50.91, 183.14 0.2 M86.43 117.54 C125.77 73.1, 164.79 28.27, 188.12 0.56 M86.43 117.54 C119.56 78.11, 154.38 37.68, 188.12 0.56 M92.08 117.14 C115.5 92.97, 136.09 68.3, 193.77 0.16 M92.08 117.14 C125.7 79.13, 157.76 44.14, 193.77 0.16 M97.06 117.5 C133.2 76.05, 170.68 36.43, 198.75 0.52 M97.06 117.5 C128.38 82.78, 156.48 49.22, 198.75 0.52 M102.71 117.11 C143.32 70.86, 181.94 26.48, 204.4 0.13 M102.71 117.11 C135.25 79.69, 167.46 44.55, 204.4 0.13 M107.69 117.47 C142.93 73.72, 180.7 32.58, 209.38 0.49 M107.69 117.47 C135.93 84.43, 164.76 50.68, 209.38 0.49 M113.34 117.07 C141.51 84.81, 169.35 54.31, 215.03 0.09 M113.34 117.07 C138.3 87.96, 165.18 57.91, 215.03 0.09 M118.32 117.43 C152.81 76.86, 185.58 36.76, 220.01 0.45 M118.32 117.43 C147.21 84.79, 175.52 50.57, 220.01 0.45 M123.97 117.04 C147.31 92.08, 168.5 67.33, 225.66 0.06 M123.97 117.04 C164.91 70.01, 203.5 25.31, 225.66 0.06 M128.95 117.4 C168.1 70.22, 208.41 22.87, 230.64 0.42 M128.95 117.4 C166.03 76.68, 201.41 35.52, 230.64 0.42 M133.94 117.76 C158.83 92.63, 178.55 65.71, 236.29 0.02 M133.94 117.76 C161.84 85.05, 190.04 51.41, 236.29 0.02 M139.58 117.36 C169.8 82.53, 200.01 50.88, 241.27 0.38 M139.58 117.36 C162.71 90.72, 186.49 63.75, 241.27 0.38 M144.57 117.72 C173.17 86, 197.89 52.86, 246.92 -0.01 M144.57 117.72 C180.87 76.05, 215.85 34.66, 246.92 -0.01 M150.21 117.33 C186.36 77.79, 220.25 37.09, 251.9 0.35 M150.21 117.33 C186.79 76.42, 222.53 33.26, 251.9 0.35 M155.2 117.69 C191.99 72.85, 230.48 32.2, 257.55 -0.05 M155.2 117.69 C194.4 74.38, 231.16 30.04, 257.55 -0.05 M160.84 117.29 C191.26 81.46, 225.7 40.72, 262.53 0.31 M160.84 117.29 C186.98 85.25, 214.34 54.02, 262.53 0.31 M165.83 117.65 C197.68 84.16, 229.06 48.37, 268.18 -0.08 M165.83 117.65 C202.55 76.38, 237.74 35.24, 268.18 -0.08 M171.47 117.26 C211.13 73.53, 247.37 28.01, 273.16 0.28 M171.47 117.26 C191.51 93.52, 212.81 69.66, 273.16 0.28 M176.46 117.62 C207.48 83.24, 238.6 46.8, 278.15 0.64 M176.46 117.62 C199.14 91.01, 222.04 63.24, 278.15 0.64 M182.1 117.23 C207.96 86.2, 235.58 55.45, 283.79 0.25 M182.1 117.23 C210.82 84.02, 240.2 50.73, 283.79 0.25 M187.09 117.59 C224.16 73.8, 262.31 31.46, 288.78 0.61 M187.09 117.59 C210.47 92.28, 231.49 66.96, 288.78 0.61 M192.73 117.19 C227.52 76.71, 266.1 33.66, 294.42 0.21 M192.73 117.19 C226.84 79.31, 261.16 39.38, 294.42 0.21 M197.72 117.55 C231.64 78.83, 264.29 40.92, 299.41 0.57 M197.72 117.55 C222.68 88.63, 247.55 60.36, 299.41 0.57 M203.36 117.16 C226.98 89.25, 249.38 65.08, 305.05 0.18 M203.36 117.16 C228.36 87.03, 252.69 59.87, 305.05 0.18 M208.35 117.52 C249.15 71.65, 289.46 24.36, 310.04 0.54 M208.35 117.52 C238 81.4, 269.54 45.06, 310.04 0.54 M213.99 117.12 C241.28 87.81, 267.62 57.59, 315.68 0.14 M213.99 117.12 C237.05 90.46, 262.57 61.74, 315.68 0.14 M218.98 117.48 C241.65 91.12, 264.09 65.9, 320.67 0.5 M218.98 117.48 C251.83 80.28, 283.13 43.47, 320.67 0.5 M224.62 117.09 C246.75 89.8, 272.03 62, 326.31 0.11 M224.62 117.09 C244.4 92.63, 265.25 68.09, 326.31 0.11 M229.61 117.45 C254.53 89.83, 276.88 61.12, 331.3 0.47 M229.61 117.45 C256.77 88.05, 282.74 58.13, 331.3 0.47 M234.6 117.81 C269.08 75.73, 304.71 36.4, 336.94 0.07 M234.6 117.81 C270.36 76.78, 305.75 35.63, 336.94 0.07 M240.24 117.41 C271.95 81.91, 302.89 48.57, 341.93 0.43 M240.24 117.41 C262.94 90.45, 285.84 63.55, 341.93 0.43 M245.23 117.77 C266.17 94.22, 286.86 69.36, 347.57 0.04 M245.23 117.77 C281.64 75.85, 317.67 34.76, 347.57 0.04 M250.87 117.38 C274.76 88.73, 298.54 61.32, 352.56 0.4 M250.87 117.38 C272.33 91.71, 292.93 67.17, 352.56 0.4 M255.86 117.74 C295.56 71.31, 338.68 23.89, 358.2 0 M255.86 117.74 C296.59 72.51, 335.17 27.05, 358.2 0 M261.5 117.34 C295.28 76.34, 329.04 37.61, 363.19 0.36 M261.5 117.34 C289.75 85.1, 318.93 52.52, 363.19 0.36 M266.49 117.7 C300.94 75.29, 340 34.22, 368.18 0.72 M266.49 117.7 C300.15 79.11, 335.31 40.18, 368.18 0.72 M272.13 117.31 C295.9 86.22, 321.23 56.52, 373.82 0.33 M272.13 117.31 C293.22 93.65, 314.78 68.68, 373.82 0.33 M277.12 117.67 C306.74 86.72, 334.65 51.09, 378.81 0.69 M277.12 117.67 C314.31 74.64, 350.88 31.2, 378.81 0.69 M282.76 117.28 C305.42 89.03, 334.08 59.46, 384.45 0.3 M282.76 117.28 C308.96 86.7, 335.82 57.32, 384.45 0.3 M287.75 117.64 C307.2 93.95, 331.64 68.75, 389.44 0.66 M287.75 117.64 C321.1 76.91, 356.84 36.67, 389.44 0.66 M293.39 117.24 C311.72 91.49, 333.56 69.91, 395.08 0.26 M293.39 117.24 C333.67 71.37, 372.78 25.69, 395.08 0.26 M298.38 117.6 C335.26 72.96, 371.91 32.65, 400.07 0.62 M298.38 117.6 C318.01 94.43, 339.34 68.59, 400.07 0.62 M304.02 117.21 C326.79 92.36, 346.73 67.27, 405.71 0.23 M304.02 117.21 C331.6 86.59, 358.75 54.69, 405.71 0.23 M309.01 117.57 C348.26 71.29, 388.45 25.23, 410.7 0.59 M309.01 117.57 C332.72 91.3, 354.61 66.21, 410.7 0.59 M314.65 117.17 C351.33 75.64, 386.01 35.46, 416.34 0.19 M314.65 117.17 C336.86 92.23, 359.24 66.97, 416.34 0.19 M319.64 117.53 C349.62 78.97, 381.6 43.94, 421.33 0.55 M319.64 117.53 C353.42 79.5, 386.25 42.49, 421.33 0.55 M324.63 117.89 C359.72 77.99, 393.64 40.86, 426.97 0.16 M324.63 117.89 C354.26 82.42, 383.51 49.11, 426.97 0.16 M330.27 117.5 C350.53 91.41, 372.14 70.86, 431.96 0.52 M330.27 117.5 C365.82 75.4, 402.57 35.16, 431.96 0.52 M335.26 117.86 C358.62 89.2, 384.81 60.3, 437.6 0.12 M335.26 117.86 C356.83 93.64, 377.29 68.51, 437.6 0.12 M340.9 117.46 C371.92 79.87, 403.55 43.78, 442.59 0.48 M340.9 117.46 C365.14 88.46, 388.96 60.13, 442.59 0.48 M345.89 117.82 C387.2 70.15, 429.03 24.47, 448.23 0.09 M345.89 117.82 C368.88 91.97, 390.5 67.61, 448.23 0.09 M351.53 117.43 C381.46 83.24, 409.67 49.6, 453.22 0.45 M351.53 117.43 C372.5 93.77, 394.5 70.55, 453.22 0.45 M356.52 117.79 C388.79 80.69, 418.57 44.79, 458.86 0.05 M356.52 117.79 C379.19 93.02, 402.06 66.63, 458.86 0.05 M362.16 117.39 C382.57 90.85, 405.41 66.11, 463.85 0.41 M362.16 117.39 C399.49 76.76, 436.02 32.34, 463.85 0.41 M367.15 117.75 C399.22 82.16, 428.51 47.41, 468.84 0.77 M367.15 117.75 C392.31 87.45, 418.08 59.94, 468.84 0.77 M372.79 117.36 C407.46 78.06, 443.42 37.03, 474.48 0.38 M372.79 117.36 C405.57 78.15, 440.7 37.92, 474.48 0.38 M377.78 117.72 C407.4 81.58, 439.29 45.9, 479.47 0.74 M377.78 117.72 C418.77 70.58, 458.64 23.12, 479.47 0.74 M383.42 117.32 C422.36 71.65, 462.03 26.94, 485.11 0.34 M383.42 117.32 C405.4 92.95, 429.13 66.29, 485.11 0.34 M388.41 117.68 C411.1 89.9, 436.28 61.65, 490.1 0.7 M388.41 117.68 C415.16 85.38, 443.96 53.11, 490.1 0.7 M394.05 117.29 C415.29 94.4, 438.31 68.3, 495.74 0.31 M394.05 117.29 C417.49 91.06, 439.28 64.3, 495.74 0.31 M399.04 117.65 C426.04 85.83, 451.99 55.4, 500.73 0.67 M399.04 117.65 C437.76 74.12, 476.97 29.44, 500.73 0.67 M404.68 117.26 C435.02 82.22, 467.72 43.78, 506.37 0.28 M404.68 117.26 C426.85 90.41, 450.49 64.71, 506.37 0.28 M409.67 117.62 C441.69 80.77, 473 43.31, 511.36 0.64 M409.67 117.62 C441.35 85.02, 470.95 49.61, 511.36 0.64 M415.31 117.22 C456.73 69.93, 495.43 23.81, 517 0.24 M415.31 117.22 C438.72 89.73, 461.86 64.11, 517 0.24 M420.3 117.58 C454.6 75.49, 489.58 38.14, 521.99 0.6 M420.3 117.58 C449.89 81.21, 480.92 44.86, 521.99 0.6 M425.28 117.94 C460.91 76.82, 497.13 34.89, 527.63 0.21 M425.28 117.94 C457.02 83.52, 486.9 47.63, 527.63 0.21 M430.93 117.55 C461.07 80.04, 492.39 45.22, 532.62 0.57 M430.93 117.55 C470.9 73.7, 510.29 28.15, 532.62 0.57 M435.91 117.91 C467.07 82.57, 499.76 44.63, 538.26 0.17 M435.91 117.91 C457.54 90.41, 481.2 65.12, 538.26 0.17 M441.56 117.51 C479.16 72.42, 518.82 29.69, 543.25 0.53 M441.56 117.51 C463.71 91.17, 485.16 65.92, 543.25 0.53 M446.54 117.87 C485.31 71.59, 526.34 27.69, 548.89 0.14 M446.54 117.87 C473.73 86.79, 499 57.56, 548.89 0.14 M452.19 117.48 C486 78.79, 517.31 42.9, 553.88 0.5 M452.19 117.48 C487.21 73.88, 524.06 31.66, 553.88 0.5 M457.17 117.84 C486.43 84.53, 515.81 49.81, 558.86 0.86 M457.17 117.84 C495.63 74.7, 533.37 30.06, 558.86 0.86 M462.82 117.44 C495.15 79.8, 526.01 39.19, 564.51 0.46 M462.82 117.44 C489.44 85.47, 518.18 53.62, 564.51 0.46 M467.8 117.8 C505.26 73.98, 541.73 32.75, 569.49 0.82 M467.8 117.8 C490.39 91.35, 512.02 66, 569.49 0.82 M473.45 117.41 C509.25 74.9, 548.47 34.36, 575.14 0.43 M473.45 117.41 C505.65 80.99, 534.84 46.93, 575.14 0.43 M478.43 117.77 C513.89 79.04, 549.74 35.09, 580.12 0.79 M478.43 117.77 C514.55 75.93, 550.36 34.82, 580.12 0.79 M484.08 117.37 C505.67 90.14, 527.26 65.45, 585.77 0.39 M484.08 117.37 C514.94 82.77, 545.66 49.24, 585.77 0.39 M489.06 117.73 C526.73 75.1, 565.36 31.94, 590.75 0.75 M489.06 117.73 C508.94 94.97, 529.79 70.5, 590.75 0.75 M494.71 117.34 C527.23 82.86, 556.06 45.92, 596.4 0.36 M494.71 117.34 C514.59 94.08, 536.03 70.11, 596.4 0.36 M499.69 117.7 C517.3 95.59, 541.18 70.51, 601.38 0.72 M499.69 117.7 C532.96 78.91, 565.5 40.99, 601.38 0.72 M505.34 117.31 C544.48 69.84, 587.88 26.09, 607.03 0.33 M505.34 117.31 C529.75 89.95, 555.06 60.56, 607.03 0.33 M510.32 117.67 C548.89 73.76, 589.55 27.45, 612.01 0.69 M510.32 117.67 C545.17 78.28, 579.68 40.35, 612.01 0.69 M515.31 118.03 C547.94 79.68, 584.58 39.11, 617.66 0.29 M515.31 118.03 C551.67 77.62, 587.05 35.36, 617.66 0.29 M520.96 117.63 C550.8 86.52, 579.44 54.8, 622.64 0.65 M520.96 117.63 C557.98 75.91, 594.6 35.14, 622.64 0.65 M525.94 117.99 C561.22 80.01, 593.73 42.43, 628.29 0.26 M525.94 117.99 C560 77.34, 597.21 35.5, 628.29 0.26 M531.59 117.6 C558.48 87.19, 584.28 59.26, 633.27 0.62 M531.59 117.6 C553.35 92.29, 574.88 67.47, 633.27 0.62 M536.57 117.96 C575.72 72.78, 611.73 29.64, 638.92 0.22 M536.57 117.96 C571.75 76.49, 608.65 35.95, 638.92 0.22 M542.22 117.56 C568.11 87.15, 598.21 51.64, 643.9 0.58 M542.22 117.56 C565.08 92.29, 585.24 68.03, 643.9 0.58 M547.2 117.92 C578.54 78.13, 614.58 39.63, 649.55 0.19 M547.2 117.92 C584.79 74.27, 622.36 32.21, 649.55 0.19 M552.85 117.53 C589.95 77.09, 622.08 33.34, 654.53 0.55 M552.85 117.53 C590.14 74.57, 628.44 31.13, 654.53 0.55 M557.83 117.89 C579.23 92.27, 601.71 67.25, 659.52 0.91 M557.83 117.89 C587.92 82.78, 617.14 49.37, 659.52 0.91 M563.48 117.49 C586.67 88.55, 613.43 57.28, 665.16 0.51 M563.48 117.49 C602.05 73.62, 638.58 30.73, 665.16 0.51 M568.46 117.85 C596.89 88.77, 623.57 59.98, 670.15 0.87 M568.46 117.85 C600.59 78.78, 633.08 42, 670.15 0.87 M574.11 117.46 C612.05 78.13, 646.58 34.51, 675.79 0.48 M574.11 117.46 C596.15 91.51, 617.54 66.02, 675.79 0.48 M579.09 117.82 C613.11 81.93, 644.45 40.78, 680.78 0.84 M579.09 117.82 C615.34 75.72, 653.49 33.98, 680.78 0.84 M584.74 117.42 C613.59 83.27, 644.85 49.79, 686.42 0.44 M584.74 117.42 C624.68 70.65, 664.23 24.77, 686.42 0.44 M589.72 117.78 C615.78 87.22, 643.81 56.84, 691.41 0.8 M589.72 117.78 C629.14 73.8, 667.89 28.74, 691.41 0.8 M595.37 117.39 C620.21 90.71, 646.63 62.25, 697.05 0.41 M595.37 117.39 C622.02 84.77, 651.25 53.48, 697.05 0.41 M600.35 117.75 C632.53 82.64, 666.16 42.32, 702.04 0.77 M600.35 117.75 C624.47 87.69, 650.49 58.59, 702.04 0.77 M606 117.36 C626.94 93.84, 652.69 64.32, 707.68 0.38 M606 117.36 C641.43 77.7, 677.3 36.78, 707.68 0.38 M610.98 117.72 C650.09 74.25, 687.03 29.52, 712.67 0.74 M610.98 117.72 C647.05 76.25, 684.94 34.27, 712.67 0.74 M615.97 118.08 C642.87 88.08, 666.55 57.77, 717.66 1.1 M615.97 118.08 C654.38 76.64, 691.44 33.33, 717.66 1.1 M621.61 117.68 C652.21 83.96, 679.25 50.32, 721.99 2.21 M621.61 117.68 C656.92 75.51, 694.94 32.86, 721.99 2.21 M626.6 118.04 C665.18 75.17, 699.43 31.04, 725.66 4.08 M626.6 118.04 C665.42 73.31, 704.69 27.11, 725.66 4.08 M632.24 117.65 C665.3 78.29, 699.56 37.75, 729.34 5.95 M632.24 117.65 C653.87 94.15, 674.7 68.71, 729.34 5.95 M637.23 118.01 C673.47 71.93, 710.87 28.51, 733.01 7.82 M637.23 118.01 C657.91 96.15, 676.67 73.22, 733.01 7.82 M642.87 117.61 C667.76 90.98, 690.25 67.23, 735.38 11.2 M642.87 117.61 C678.93 75.83, 713.51 34.05, 735.38 11.2 M647.86 117.97 C679.59 81.46, 712.6 45.92, 737.08 15.33 M647.86 117.97 C668.71 94.73, 686.83 71.65, 737.08 15.33 M653.5 117.58 C673.57 94.31, 695.88 69.3, 740.1 17.96 M653.5 117.58 C669.9 97.54, 687.9 75.94, 740.1 17.96 M658.49 117.94 C684.26 86.58, 707.59 59.98, 740.5 23.6 M658.49 117.94 C674.04 98.2, 692.21 79.88, 740.5 23.6 M664.13 117.54 C681.01 95.96, 702.16 74.83, 740.24 30 M664.13 117.54 C688.55 90.24, 712.45 63.47, 740.24 30 M669.12 117.9 C692.45 94.51, 712.41 70.84, 739.97 36.39 M669.12 117.9 C697.07 86.03, 724.39 55.88, 739.97 36.39 M674.76 117.51 C699.56 89.86, 724.64 59.57, 740.37 42.04 M674.76 117.51 C690.35 98.57, 706.86 78.3, 740.37 42.04 M679.75 117.87 C701.46 90.79, 724.71 64.12, 740.11 48.44 M679.75 117.87 C697.1 97.76, 714.32 78.11, 740.11 48.44 M685.39 117.47 C702.15 96.71, 718.98 77.48, 739.85 54.83 M685.39 117.47 C699.67 101.7, 711.56 86.36, 739.85 54.83 M690.38 117.83 C698.82 104.48, 712.62 92.3, 740.24 60.48 M690.38 117.83 C706.88 97.61, 725.55 79.04, 740.24 60.48 M696.02 117.44 C706.38 106.21, 712.6 95.78, 739.98 66.87 M696.02 117.44 C704.15 107.51, 713.54 96.38, 739.98 66.87 M701.01 117.8 C713.33 104.22, 723.51 94.53, 739.72 73.27 M701.01 117.8 C712.61 106.31, 723.43 94.13, 739.72 73.27 M706 118.16 C718.41 103.75, 730.9 91.65, 740.11 78.91 M706 118.16 C718.79 105.28, 730.11 89.64, 740.11 78.91 M710.98 118.52 C716.99 110.01, 722.09 105.48, 739.85 85.31 M710.98 118.52 C718.84 108.95, 726.49 100.42, 739.85 85.31 M717.28 117.37 C722.74 110.82, 729.12 103.85, 739.59 91.71 M717.28 117.37 C721.66 111.37, 725.48 106.56, 739.59 91.71 M723.58 116.22 C728.17 109.85, 734.73 101.03, 740.64 96.6 M723.58 116.22 C727.94 111.27, 733.11 105.89, 740.64 96.6" stroke="#ffc9c9" stroke-width="0.5" fill="none"></path><path d="M29.32 0 M29.32 0 C243.23 -1.09, 458.75 -0.3, 710.26 0 M29.32 0 C268.29 0.41, 506.74 0.74, 710.26 0 M710.26 0 C730.6 -0.87, 739.92 9.04, 739.58 29.32 M710.26 0 C730.41 1.42, 740.67 8.79, 739.58 29.32 M739.58 29.32 C739.44 47.65, 739.35 67.01, 739.58 87.97 M739.58 29.32 C739.64 42.5, 738.56 56.01, 739.58 87.97 M739.58 87.97 C737.71 107.84, 728.48 115.86, 710.26 117.3 M739.58 87.97 C738.51 107.71, 729.52 115.89, 710.26 117.3 M710.26 117.3 C441.33 116.87, 172.71 115.87, 29.32 117.3 M710.26 117.3 C549.69 118.29, 388.54 118.81, 29.32 117.3 M29.32 117.3 C11.18 117.55, -1.53 109.35, 0 87.97 M29.32 117.3 C10.4 115.54, -1.56 109.39, 0 87.97 M0 87.97 C0.58 64.98, 0.4 42.9, 0 29.32 M0 87.97 C0.55 73.44, 0.46 60.84, 0 29.32 M0 29.32 C1.06 9.35, 9.59 1.44, 29.32 0 M0 29.32 C2.22 10.93, 8.33 2.04, 29.32 0" stroke="#1971c2" stroke-width="1" fill="none"></path></g><g transform="translate(41.62037192596381 98.47166170113576) rotate(0 344.5372314453125 45.36346313624853)"><text x="344.5372314453125" y="0" font-family="Virgil, Segoe UI Emoji" font-size="72.58154101799767px" fill="#1971c2" text-anchor="middle" style="white-space: pre;" direction="ltr" dominant-baseline="text-before-edge">RA 21 11033010027</text></g><g stroke-linecap="round"><g transform="translate(747.5952020476689 143.20452435901313) rotate(0 62.12544907527649 1.3496658738968677)"><path d="M-0.76 0.74 C19.6 1.24, 102.05 2.53, 122.63 2.62 M1.05 0.08 C21.76 0.27, 104.91 0.47, 125.01 0.83" stroke="#1971c2" stroke-width="1" fill="none"></path></g><g transform="translate(747.5952020476689 143.20452435901313) rotate(0 62.12544907527649 1.3496658738968677)"><path d="M97.96 9.78 C107.44 6.69, 114.85 5.62, 123.91 1.92 M96.15 10.22 C108.45 7.01, 118.45 3.2, 125.79 0.48" stroke="#1971c2" stroke-width="1" fill="none"></path></g><g transform="translate(747.5952020476689 143.20452435901313) rotate(0 62.12544907527649 1.3496658738968677)"><path d="M98.14 -10.74 C107.49 -6.85, 114.84 -0.93, 123.91 1.92 M96.34 -10.3 C108.4 -5.71, 118.33 -1.72, 125.79 0.48" stroke="#1971c2" stroke-width="1" fill="none"></path></g></g><mask></mask><g stroke-linecap="round"><g transform="translate(755.5477109646247 292.31406655193814) rotate(0 57.951850436765085 -0.18007628995530922)"><path d="M-0.48 0.05 C18.86 0.19, 96.97 0.6, 116.39 0.71 M1.46 -0.97 C20.71 -1.17, 96.97 -1, 116 -1.04" stroke="#1971c2" stroke-width="1" fill="none"></path></g><g transform="translate(755.5477109646247 292.31406655193814) rotate(0 57.951850436765085 -0.18007628995530922)"><path d="M87.89 11.01 C98.24 7.18, 107.5 3.02, 117.01 -0.3 M87.56 9.23 C95.68 5.25, 105.28 3.64, 115.73 -0.59" stroke="#1971c2" stroke-width="1" fill="none"></path></g><g transform="translate(755.5477109646247 292.31406655193814) rotate(0 57.951850436765085 -0.18007628995530922)"><path d="M87.89 -9.51 C98.22 -6.62, 107.48 -4.05, 117.01 -0.3 M87.56 -11.29 C95.49 -9.13, 105.09 -4.61, 115.73 -0.59" stroke="#1971c2" stroke-width="1" fill="none"></path></g></g><mask></mask><g stroke-linecap="round"><g transform="translate(759.5239654231027 461.30488103725315) rotate(0 59.63370449095919 -1.7572562082843604)"><path d="M0.19 -0.22 C20.36 -0.51, 100.73 -0.96, 120.44 -1.45 M-1.17 -1.39 C18.99 -2.06, 99.76 -3.11, 120.1 -3.29" stroke="#1971c2" stroke-width="1" fill="none"></path></g><g transform="translate(759.5239654231027 461.30488103725315) rotate(0 59.63370449095919 -1.7572562082843604)"><path d="M91.65 9.22 C99.98 3.15, 104.22 1.99, 118.75 -3.67 M91.98 8 C99.2 5.05, 109.04 1.38, 120.39 -4.1" stroke="#1971c2" stroke-width="1" fill="none"></path></g><g transform="translate(759.5239654231027 461.30488103725315) rotate(0 59.63370449095919 -1.7572562082843604)"><path d="M91.42 -11.3 C99.85 -12.19, 104.15 -8.18, 118.75 -3.67 M91.74 -12.52 C98.83 -9.6, 108.73 -7.41, 120.39 -4.1" stroke="#1971c2" stroke-width="1" fill="none"></path></g></g><mask></mask><g transform="translate(882.6280862963292 119.34699760814522) rotate(0 159.20994567871094 22.5)"><text x="159.20994567871094" y="0" font-family="Virgil, Segoe UI Emoji" font-size="36px" fill="#1971c2" text-anchor="middle" style="white-space: pre;" direction="ltr" dominant-baseline="text-before-edge">current 3rd years</text></g><g transform="translate(883.3922145021304 265.83781209346023) rotate(0 160.43394470214844 22.5)"><text x="160.43394470214844" y="0" font-family="Virgil, Segoe UI Emoji" font-size="36px" fill="#1971c2" text-anchor="middle" style="white-space: pre;" direction="ltr" dominant-baseline="text-before-edge">current 2nd years</text></g><g transform="translate(894.0104672516247 433.4710998279071) rotate(0 153.7919464111328 22.5)"><text x="153.7919464111328" y="0" font-family="Virgil, Segoe UI Emoji" font-size="36px" fill="#1971c2" text-anchor="middle" style="white-space: pre;" direction="ltr" dominant-baseline="text-before-edge">current 1st years</text></g></svg>